SplineFontDB: 3.0
FontName: Bodoni-48-Book-Italic
FullName: Bodoni* 48 Book Italic
FamilyName: Bodoni* 48
Weight: Book
Copyright: Copyright (c) 2020, indestructible type* (https://github.com/indestructible-type)
Version: 002.1
ItalicAngle: -13
UnderlinePosition: -200
UnderlineWidth: 0
Ascent: 1600
Descent: 400
InvalidEm: 0
LayerCount: 2
Layer: 0 0 "Back" 1
Layer: 1 0 "Fore" 0
PreferredKerning: 4
XUID: [1021 31 -699969567 16487490]
FSType: 0
OS2Version: 0
OS2_WeightWidthSlopeOnly: 0
OS2_UseTypoMetrics: 1
CreationTime: 1460762150
ModificationTime: 1580413908
PfmFamily: 17
TTFWeight: 400
TTFWidth: 5
LineGap: 0
VLineGap: 0
OS2TypoAscent: 2000
OS2TypoAOffset: 0
OS2TypoDescent: -800
OS2TypoDOffset: 0
OS2TypoLinegap: 0
OS2WinAscent: 2000
OS2WinAOffset: 0
OS2WinDescent: 800
OS2WinDOffset: 0
HheadAscent: 2000
HheadAOffset: 0
HheadDescent: -800
HheadDOffset: 0
OS2CapHeight: 1500
OS2XHeight: 920
OS2FamilyClass: 768
OS2Vendor: 'it* '
OS2UnicodeRanges: 00000001.00000000.00000000.00000000
Lookup: 1 0 0 "'ss02' Style Set 2 lookup 4" { "'ss02' Style Set 2 lookup 4-1"  } ['ss02' ('DFLT' <'dflt' > 'grek' <'dflt' > 'latn' <'dflt' > ) ]
Lookup: 1 0 0 "'ss03' Style Set 3 lookup 5" { "'ss03' Style Set 3 lookup 5-1"  } ['ss03' ('DFLT' <'dflt' > 'grek' <'dflt' > 'latn' <'dflt' > ) ]
Lookup: 1 0 0 "'ss04' Style Set 4 lookup 5" { "'ss04' Style Set 4 lookup 5-1"  } ['ss04' ('DFLT' <'dflt' > 'grek' <'dflt' > 'latn' <'dflt' > ) ]
Lookup: 1 0 0 "'ss01' Style Set 1 lookup 2" { "'ss01' Style Set 1 lookup 2-1"  } ['ss01' ('DFLT' <'dflt' > 'grek' <'dflt' > 'latn' <'dflt' > ) ]
Lookup: 5 0 0 "'calt' Contextual Alternates lookup 3" { "'calt' Contextual Alternates lookup 3-1"  } ['calt' ('DFLT' <'dflt' > 'grek' <'dflt' > 'latn' <'dflt' > ) ]
Lookup: 4 0 1 "'liga' Standard Ligatures lookup 0" { "'liga' Standard Ligatures lookup 0-1"  } ['liga' ('DFLT' <'dflt' > 'grek' <'dflt' > 'latn' <'dflt' > ) ]

StartChar: ampersand
Encoding: 38 38 0
GlifName: ampersand
Width: 1577
Flags: HMW
LayerCount: 2
Fore
SplineSet
773 881 m 17
 984 969 1082 1131 1082 1280 c 0
 1082 1413 1042 1512 936 1512 c 0
 764 1512 686 1366 686 1240 c 0
 686 1170 710 1080 764 940 c 2
 1052 190 l 2
 1080 108 1113 10 1193 10 c 0
 1270 10 1355 65 1390 144 c 1
 1398 140 l 1
 1360 52 1258 -20 1100 -20 c 0
 954 -20 874 46 822 182 c 2
 528 940 l 2
 494 1024 476 1096 476 1166 c 0
 476 1366 666 1520 938 1520 c 0
 1112 1520 1270 1445 1270 1275 c 0
 1270 1045 1011 975 776 874 c 1
 773 881 l 17
588 804 m 9
 594 792 l 1
 450 715 260 597 260 300 c 0
 260 216 310 -4 518 -4 c 0
 1023 -4 1546 481 1546 740 c 2
 1546 774 l 17
 1534 718 1488 670 1420 670 c 0
 1340 670 1296 734 1296 784 c 0
 1296 844 1346 898 1420 898 c 0
 1516 898 1558 824 1558 752 c 0
 1558 472 1028 -20 478 -20 c 0
 192 -20 40 114 40 305 c 0
 40 629 293 681 588 804 c 9
EndSplineSet
EndChar

StartChar: period
Encoding: 46 46 1
GlifName: period
Width: 399
Flags: HMW
LayerCount: 2
Fore
SplineSet
20 100 m 0
 20 166 74 220 140 220 c 0
 206 220 260 166 260 100 c 0
 260 34 206 -20 140 -20 c 0
 74 -20 20 34 20 100 c 0
EndSplineSet
EndChar

StartChar: zero
Encoding: 48 48 2
GlifName: zero
Width: 1239
Flags: HMW
LayerCount: 2
Fore
SplineSet
884 1520 m 0
 1140 1520 1286 1310 1286 1072 c 0
 1286 494 926 -20 544 -20 c 0
 288 -20 142 190 142 428 c 0
 142 1006 502 1520 884 1520 c 0
884 1512 m 0
 562 1512 338 750 338 368 c 0
 338 196 370 -12 544 -12 c 0
 866 -12 1090 750 1090 1132 c 0
 1090 1304 1058 1512 884 1512 c 0
EndSplineSet
EndChar

StartChar: one
Encoding: 49 49 3
GlifName: one
Width: 869
VWidth: 2309
Flags: HMW
LayerCount: 2
Fore
SplineSet
-80 8 m 1
 550 8 l 1
 550 0 l 1
 -80 0 l 1
 -80 8 l 1
476 1492 m 1
 244 1492 l 1
 244 1500 l 1
 670 1500 l 1
 330 0 l 1
 140 0 l 1
 476 1492 l 1
EndSplineSet
EndChar

StartChar: two
Encoding: 50 50 4
GlifName: two
Width: 1099
VWidth: 2309
Flags: HMW
LayerCount: 2
Fore
SplineSet
194 1068 m 1
 204 1112 244 1164 318 1164 c 0
 376 1164 436 1122 436 1052 c 0
 436 972 380 924 310 924 c 0
 240 924 182 974 182 1058 c 0
 182 1292 396 1520 670 1520 c 0
 912 1520 1074 1400 1074 1200 c 0
 1074 1000 808 806 690 712 c 2
 24 180 l 1
 858 180 l 1
 890 330 l 1
 898 330 l 1
 828 0 l 1
 -82 0 l 1
 -54 130 l 1
 524 592 l 2
 708 740 874 972 874 1160 c 0
 874 1368 800 1498 624 1498 c 0
 396 1498 196 1278 194 1068 c 1
EndSplineSet
EndChar

StartChar: three
Encoding: 51 51 5
GlifName: three
Width: 1041
VWidth: 2309
Flags: HMW
LayerCount: 2
Fore
SplineSet
290 1220 m 0
 290 1364 458 1518 702 1518 c 0
 884 1518 1062 1462 1062 1242 c 0
 1062 1042 898 810 436 810 c 1
 436 818 l 1
 754 818 860 1078 860 1242 c 0
 860 1408 808 1502 650 1502 c 0
 486 1502 328 1390 304 1260 c 1
 312 1282 352 1318 404 1318 c 0
 462 1318 518 1278 518 1208 c 0
 518 1128 454 1096 404 1096 c 0
 344 1096 290 1138 290 1220 c 0
10 272 m 0
 10 354 60 402 130 402 c 0
 190 402 238 362 238 290 c 0
 238 226 182 180 124 180 c 0
 66 180 30 218 22 258 c 1
 26 110 174 -6 400 -6 c 0
 638 -6 760 236 760 460 c 0
 760 626 714 810 436 810 c 1
 436 818 l 1
 858 818 962 680 962 460 c 0
 962 200 704 -20 422 -20 c 0
 138 -20 10 128 10 272 c 0
EndSplineSet
EndChar

StartChar: four
Encoding: 52 52 6
GlifName: four
Width: 1189
VWidth: 2309
Flags: HMW
LayerCount: 2
Fore
SplineSet
1020 8 m 1
 1020 0 l 1
 490 0 l 1
 490 8 l 1
 1020 8 l 1
1170 1500 m 1
 850 0 l 1
 660 0 l 1
 968 1464 l 1
 88 434 l 1
 1170 434 l 1
 1170 426 l 1
 70 426 l 1
 988 1500 l 1
 1170 1500 l 1
EndSplineSet
Substitution2: "'ss03' Style Set 3 lookup 5-1" four.alt
EndChar

StartChar: five
Encoding: 53 53 7
GlifName: five
Width: 1000
VWidth: 2309
Flags: HMW
LayerCount: 2
Fore
SplineSet
940 560 m 0
 940 260 654 -20 352 -20 c 0
 148 -20 0 114 0 258 c 0
 0 340 54 382 114 382 c 0
 164 382 228 350 228 270 c 0
 228 200 172 160 114 160 c 0
 56 160 20 192 12 228 c 1
 28 102 164 -10 332 -10 c 0
 590 -10 730 332 730 560 c 0
 730 748 676 928 518 928 c 0
 358 928 218 858 148 754 c 1
 138 754 l 1
 210 868 362 940 544 940 c 0
 786 940 940 820 940 560 c 0
1050 1320 m 1
 340 1320 l 1
 142 754 l 1
 134 754 l 1
 394 1500 l 1
 1078 1500 l 1
 1102 1610 l 1
 1110 1610 l 1
 1050 1320 l 1
EndSplineSet
EndChar

StartChar: six
Encoding: 54 54 8
GlifName: six
Width: 1119
VWidth: 2309
Flags: HMW
LayerCount: 2
Fore
SplineSet
880 600 m 0
 880 808 836 954 718 954 c 0
 442 954 300 560 300 340 c 1
 292 340 l 1
 292 574 440 980 762 980 c 0
 924 980 1080 880 1080 600 c 0
 1080 300 790 -20 488 -20 c 0
 266 -20 100 120 100 440 c 0
 100 866 564 1520 1130 1520 c 1
 1130 1512 l 1
 698 1512 304 880 304 432 c 1
 300 340 l 1
 300 152 356 -12 494 -12 c 0
 712 -12 880 352 880 600 c 0
EndSplineSet
EndChar

StartChar: seven
Encoding: 55 55 9
GlifName: seven
Width: 1009
VWidth: 2309
Flags: HMW
LayerCount: 2
Fore
SplineSet
296 132 m 0
 296 288 524 574 682 796 c 0
 774 928 936 1150 1058 1310 c 1
 270 1310 l 1
 236 1160 l 1
 228 1160 l 1
 300 1500 l 1
 1210 1500 l 1
 1210 1500 870 1048 692 796 c 0
 558 608 412 432 412 342 c 0
 412 238 556 260 556 116 c 0
 556 42 508 -20 420 -20 c 0
 352 -20 296 34 296 132 c 0
EndSplineSet
EndChar

StartChar: eight
Encoding: 56 56 10
GlifName: eight
Width: 1099
VWidth: 2309
Flags: HMW
LayerCount: 2
Fore
SplineSet
440 1060 m 0
 440 916 472 766 610 766 c 0
 788 766 900 956 900 1180 c 0
 900 1324 868 1512 730 1512 c 0
 552 1512 440 1284 440 1060 c 0
240 1050 m 0
 240 1290 448 1520 730 1520 c 0
 972 1520 1100 1350 1100 1190 c 0
 1100 950 892 760 610 760 c 0
 368 760 240 890 240 1050 c 0
260 320 m 0
 260 136 332 -12 490 -12 c 0
 688 -12 800 216 800 440 c 0
 800 624 728 756 570 756 c 0
 372 756 260 544 260 320 c 0
60 300 m 0
 60 540 228 764 570 764 c 0
 852 764 1000 660 1000 460 c 0
 1000 220 832 -20 490 -20 c 0
 208 -20 60 100 60 300 c 0
EndSplineSet
EndChar

StartChar: A
Encoding: 65 65 12
GlifName: A_
Width: 1449
Flags: HMW
LayerCount: 2
Fore
SplineSet
-90 8 m 1
 350 8 l 1
 350 0 l 1
 -90 0 l 1
 -90 8 l 1
730 8 m 1
 1310 8 l 1
 1310 0 l 1
 730 0 l 1
 730 8 l 1
376 494 m 1
 1030 494 l 1
 1030 486 l 1
 376 486 l 1
 376 494 l 1
832 1268 m 1
 100 0 l 1
 90 0 l 1
 972 1530 l 1
 980 1530 l 1
 1170 0 l 1
 960 0 l 1
 832 1268 l 1
EndSplineSet
EndChar

StartChar: B
Encoding: 66 66 13
GlifName: B_
Width: 1250
Flags: HMW
LayerCount: 2
Fore
SplineSet
530 0 m 2
 -90 0 l 1
 -90 8 l 1
 530 8 l 2
 772 8 930 262 930 520 c 0
 930 698 834 766 682 766 c 2
 430 766 l 1
 430 774 l 1
 702 774 l 2
 984 774 1150 680 1150 480 c 0
 1150 180 872 0 530 0 c 2
440 1500 m 1
 630 1500 l 1
 280 0 l 1
 90 0 l 1
 440 1500 l 1
670 766 m 2
 430 766 l 1
 430 774 l 1
 670 774 l 2
 822 774 1060 932 1060 1230 c 0
 1060 1368 992 1492 820 1492 c 2
 260 1492 l 1
 260 1500 l 1
 820 1500 l 2
 1142 1500 1260 1410 1260 1210 c 0
 1260 970 992 766 670 766 c 2
EndSplineSet
EndChar

StartChar: C
Encoding: 67 67 14
GlifName: C_
Width: 1325
Flags: HMW
LayerCount: 2
Fore
SplineSet
620 -20 m 0
 314 -20 110 184 110 510 c 0
 110 1056 514 1520 980 1520 c 0
 1216 1520 1396 1376 1360 1090 c 1
 1352 1090 l 1
 1388 1362 1216 1508 1000 1508 c 0
 572 1508 330 854 330 390 c 0
 330 186 432 -8 640 -8 c 0
 908 -8 1130 176 1212 410 c 1
 1220 410 l 1
 1140 164 906 -20 620 -20 c 0
1352 1090 m 1
 1360 1140 l 1
 1362 1220 1346 1306 1308 1358 c 1
 1448 1500 l 1
 1456 1500 l 1
 1360 1090 l 1
 1352 1090 l 1
1212 410 m 1
 1220 410 l 1
 1110 0 l 1
 1102 0 l 1
 1040 140 l 1
 1084 184 1146 244 1190 340 c 1
 1212 410 l 1
EndSplineSet
EndChar

StartChar: D
Encoding: 68 68 15
GlifName: D_
Width: 1389
Flags: HMW
LayerCount: 2
Fore
SplineSet
450 1500 m 1
 640 1500 l 1
 300 0 l 1
 110 0 l 1
 450 1500 l 1
500 0 m 2
 -70 0 l 1
 -70 8 l 1
 500 8 l 2
 928 8 1170 646 1170 1070 c 0
 1170 1254 1088 1492 840 1492 c 2
 250 1492 l 1
 250 1500 l 1
 840 1500 l 2
 1166 1500 1390 1316 1390 990 c 0
 1390 444 986 0 500 0 c 2
EndSplineSet
EndChar

StartChar: E
Encoding: 69 69 16
GlifName: E_
Width: 1147
Flags: HMW
LayerCount: 2
Fore
SplineSet
248 1500 m 1
 1298 1500 l 1
 1202 1090 l 1
 1194 1090 l 1
 1244 1304 1182 1492 948 1492 c 2
 248 1492 l 1
 248 1500 l 1
428 1500 m 1
 618 1500 l 1
 270 0 l 1
 80 0 l 1
 428 1500 l 1
566 772 m 2
 424 772 l 1
 424 780 l 1
 566 780 l 2
 680 780 800 852 830 986 c 1
 838 986 l 1
 740 556 l 1
 732 556 l 1
 762 690 680 772 566 772 c 2
970 0 m 1
 -90 0 l 1
 -90 8 l 1
 600 8 l 2
 874 8 1008 196 1066 450 c 1
 1074 450 l 1
 970 0 l 1
EndSplineSet
EndChar

StartChar: F
Encoding: 70 70 17
GlifName: F_
Width: 1107
Flags: HMW
LayerCount: 2
Fore
SplineSet
528 742 m 2
 418 742 l 1
 418 750 l 1
 528 750 l 2
 700 750 816 812 842 946 c 1
 850 946 l 1
 754 536 l 1
 746 536 l 1
 776 670 702 742 528 742 c 2
-90 8 m 1
 470 8 l 1
 470 0 l 1
 -90 0 l 1
 -90 8 l 1
428 1500 m 1
 618 1500 l 1
 270 0 l 1
 80 0 l 1
 428 1500 l 1
248 1500 m 1
 1278 1500 l 1
 1182 1090 l 1
 1174 1090 l 1
 1224 1304 1162 1492 928 1492 c 2
 248 1492 l 1
 248 1500 l 1
EndSplineSet
EndChar

StartChar: G
Encoding: 71 71 18
GlifName: G_
Width: 1455
Flags: HMW
LayerCount: 2
Fore
SplineSet
1086 568 m 1
 1294 568 l 1
 1234 330 l 1
 1144 204 946 -20 620 -20 c 0
 314 -20 110 184 110 510 c 0
 110 1056 514 1520 980 1520 c 0
 1216 1520 1396 1376 1360 1090 c 1
 1352 1090 l 1
 1388 1368 1208 1506 1000 1506 c 0
 572 1506 330 854 330 390 c 0
 330 186 392 -12 600 -12 c 0
 848 -12 974 206 1004 250 c 1
 1086 568 l 1
910 574 m 1
 1450 574 l 1
 1450 566 l 1
 910 566 l 1
 910 574 l 1
1448 1500 m 1
 1456 1500 l 1
 1360 1090 l 1
 1352 1090 l 1
 1360 1144 l 1
 1362 1210 1346 1298 1308 1358 c 1
 1448 1500 l 1
EndSplineSet
EndChar

StartChar: H
Encoding: 72 72 19
GlifName: H_
Width: 1439
Flags: HMW
LayerCount: 2
Fore
SplineSet
760 8 m 1
 1300 8 l 1
 1300 0 l 1
 760 0 l 1
 760 8 l 1
1090 1500 m 1
 1630 1500 l 1
 1630 1492 l 1
 1090 1492 l 1
 1090 1500 l 1
1270 1500 m 1
 1460 1500 l 1
 1120 0 l 1
 930 0 l 1
 1270 1500 l 1
-80 8 m 1
 460 8 l 1
 460 0 l 1
 -80 0 l 1
 -80 8 l 1
250 1500 m 1
 790 1500 l 1
 790 1492 l 1
 250 1492 l 1
 250 1500 l 1
430 1500 m 1
 620 1500 l 1
 280 0 l 1
 90 0 l 1
 430 1500 l 1
414 744 m 1
 1134 744 l 1
 1134 736 l 1
 414 736 l 1
 414 744 l 1
EndSplineSet
EndChar

StartChar: I
Encoding: 73 73 20
GlifName: I_
Width: 699
Flags: HMW
LayerCount: 2
Fore
SplineSet
-80 8 m 1
 560 8 l 1
 560 0 l 1
 -80 0 l 1
 -80 8 l 1
250 1500 m 1
 890 1500 l 1
 890 1492 l 1
 250 1492 l 1
 250 1500 l 1
480 1500 m 1
 670 1500 l 1
 330 0 l 1
 140 0 l 1
 480 1500 l 1
EndSplineSet
EndChar

StartChar: J
Encoding: 74 74 21
GlifName: J_
Width: 841
Flags: HMW
LayerCount: 2
Fore
SplineSet
372 1500 m 1
 1032 1500 l 1
 1032 1492 l 1
 372 1492 l 1
 372 1500 l 1
-46 156 m 1
 -44 72 26 -52 152 -52 c 0
 274 -52 324 100 388 380 c 2
 642 1500 l 1
 832 1500 l 1
 570 338 l 1
 490 198 354 -60 152 -60 c 0
 18 -60 -60 70 -60 170 c 0
 -60 254 -6 300 54 300 c 0
 104 300 166 264 166 182 c 0
 166 106 112 66 58 66 c 0
 0 66 -34 104 -46 156 c 1
EndSplineSet
Substitution2: "'ss02' Style Set 2 lookup 4-1" J.alt
EndChar

StartChar: K
Encoding: 75 75 22
GlifName: K_
Width: 1343
Flags: HMW
LayerCount: 2
Fore
SplineSet
-80 8 m 1
 460 8 l 1
 460 0 l 1
 -80 0 l 1
 -80 8 l 1
250 1500 m 1
 790 1500 l 1
 790 1492 l 1
 250 1492 l 1
 250 1500 l 1
430 1500 m 1
 620 1500 l 1
 280 0 l 1
 90 0 l 1
 430 1500 l 1
288 434 m 1
 274 434 l 1
 1262 1498 l 1
 1276 1498 l 1
 288 434 l 1
594 8 m 1
 1214 8 l 1
 1214 0 l 1
 594 0 l 1
 594 8 l 1
1464 1492 m 1
 984 1492 l 1
 984 1500 l 1
 1464 1500 l 1
 1464 1492 l 1
1040 0 m 1
 832 0 l 1
 582 762 l 1
 726 914 l 1
 1040 0 l 1
EndSplineSet
EndChar

StartChar: L
Encoding: 76 76 23
GlifName: L_
Width: 1123
Flags: HMW
LayerCount: 2
Fore
SplineSet
428 1500 m 1
 618 1500 l 1
 270 0 l 1
 80 0 l 1
 428 1500 l 1
248 1500 m 1
 798 1500 l 1
 798 1492 l 1
 248 1492 l 1
 248 1500 l 1
960 0 m 1
 -90 0 l 1
 -90 8 l 1
 590 8 l 2
 904 8 998 196 1056 450 c 1
 1064 450 l 1
 960 0 l 1
EndSplineSet
EndChar

StartChar: M
Encoding: 77 77 24
GlifName: M_
Width: 1669
Flags: HMW
LayerCount: 2
Fore
SplineSet
1040 8 m 1
 1530 8 l 1
 1530 0 l 1
 1040 0 l 1
 1040 8 l 1
1682 1492 m 1
 1370 0 l 1
 1180 0 l 1
 1500 1500 l 1
 1810 1500 l 1
 1810 1492 l 1
 1682 1492 l 1
798 262 m 1
 1496 1500 l 1
 1506 1500 l 1
 652 -20 l 1
 642 -20 l 1
 406 1500 l 1
 598 1500 l 1
 798 262 l 1
402 1492 m 1
 250 1492 l 1
 250 1500 l 1
 414 1500 l 1
 100 0 l 1
 90 0 l 1
 402 1492 l 1
-50 8 m 1
 256 8 l 1
 256 0 l 1
 -50 0 l 1
 -50 8 l 1
EndSplineSet
EndChar

StartChar: N
Encoding: 78 78 25
GlifName: N_
Width: 1429
Flags: HMW
LayerCount: 2
Fore
SplineSet
1422 1500 m 1
 1430 1500 l 1
 1084 -20 l 1
 1072 -20 l 1
 450 1500 l 1
 680 1500 l 1
 1152 314 l 1
 1422 1500 l 1
1182 1500 m 1
 1620 1500 l 1
 1620 1492 l 1
 1182 1492 l 1
 1182 1500 l 1
-70 8 m 1
 378 8 l 1
 378 0 l 1
 -70 0 l 1
 -70 8 l 1
452 1492 m 1
 250 1492 l 1
 250 1500 l 1
 464 1500 l 1
 126 0 l 1
 120 0 l 1
 452 1492 l 1
EndSplineSet
EndChar

StartChar: O
Encoding: 79 79 26
GlifName: O_
Width: 1429
Flags: HMW
LayerCount: 2
Fore
SplineSet
600 -20 m 0
 294 -20 110 184 110 510 c 0
 110 1056 514 1520 940 1520 c 0
 1226 1520 1430 1316 1430 990 c 0
 1430 444 1046 -20 600 -20 c 0
940 1512 m 0
 572 1512 330 854 330 390 c 0
 330 186 392 -12 600 -12 c 0
 988 -12 1210 646 1210 1110 c 0
 1210 1274 1148 1512 940 1512 c 0
EndSplineSet
EndChar

StartChar: P
Encoding: 80 80 27
GlifName: P_
Width: 1209
Flags: HMW
LayerCount: 2
Fore
SplineSet
430 1500 m 1
 620 1500 l 1
 270 0 l 1
 80 0 l 1
 430 1500 l 1
-80 8 m 1
 470 8 l 1
 470 0 l 1
 -80 0 l 1
 -80 8 l 1
620 676 m 2
 400 676 l 1
 400 684 l 1
 620 684 l 2
 892 684 1050 962 1050 1180 c 0
 1050 1298 1012 1492 820 1492 c 2
 250 1492 l 1
 250 1500 l 1
 820 1500 l 2
 1082 1500 1270 1400 1270 1160 c 0
 1270 860 1022 676 620 676 c 2
EndSplineSet
EndChar

StartChar: Q
Encoding: 81 81 28
GlifName: Q_
Width: 1429
Flags: HMW
LayerCount: 2
Fore
SplineSet
850 -492 m 1
 850 -500 l 1
 464 -500 390 -346 490 0 c 1
 562 -20 646 -20 720 0 c 1
 620 -364 684 -492 850 -492 c 1
940 1512 m 0
 572 1512 330 854 330 390 c 0
 330 186 392 -12 600 -12 c 0
 988 -12 1210 646 1210 1110 c 0
 1210 1274 1148 1512 940 1512 c 0
600 -20 m 0
 294 -20 110 184 110 510 c 0
 110 1056 514 1520 940 1520 c 0
 1226 1520 1430 1316 1430 990 c 0
 1430 444 1046 -20 600 -20 c 0
EndSplineSet
EndChar

StartChar: R
Encoding: 82 82 29
GlifName: R_
Width: 1429
Flags: HMW
LayerCount: 2
Fore
SplineSet
1300 24 m 1
 1228 -4 1192 -10 1120 -10 c 0
 654 -10 1152 766 660 766 c 2
 430 766 l 1
 430 770 l 1
 700 770 l 2
 1386 770 950 10 1196 10 c 0
 1238 10 1268 20 1296 32 c 1
 1300 24 l 1
470 1500 m 1
 660 1500 l 1
 310 0 l 1
 120 0 l 1
 470 1500 l 1
-80 8 m 1
 530 8 l 1
 530 0 l 1
 -80 0 l 1
 -80 8 l 1
720 766 m 2
 430 766 l 1
 430 774 l 1
 720 774 l 2
 992 774 1130 1022 1130 1220 c 0
 1130 1318 1112 1492 920 1492 c 2
 250 1492 l 1
 250 1500 l 1
 920 1500 l 2
 1182 1500 1350 1420 1350 1200 c 0
 1350 920 1122 766 720 766 c 2
EndSplineSet
Substitution2: "'ss01' Style Set 1 lookup 2-1" R.alt
EndChar

StartChar: S
Encoding: 83 83 30
GlifName: S_
Width: 1111
Flags: HMW
LayerCount: 2
Fore
SplineSet
1088 1168 m 1
 1082 1228 1064 1304 1024 1372 c 1
 1174 1520 l 1
 1182 1520 l 1
 1092 1110 l 1
 1084 1110 l 1
 1088 1168 l 1
1092 1110 m 1
 1084 1110 l 1
 1084 1364 960 1512 712 1512 c 0
 560 1512 396 1402 396 1228 c 0
 396 840 1006 980 1006 440 c 0
 1006 160 748 -30 466 -30 c 0
 154 -30 64 150 56 390 c 1
 64 390 l 1
 70 154 164 -22 464 -22 c 0
 676 -22 846 114 846 312 c 0
 846 740 236 630 236 1070 c 0
 236 1370 528 1520 710 1520 c 0
 966 1520 1092 1372 1092 1110 c 1
-32 -20 m 1
 -40 -20 l 1
 56 390 l 1
 64 390 l 1
 68 302 l 1
 78 240 98 178 120 138 c 1
 -32 -20 l 1
EndSplineSet
EndChar

StartChar: T
Encoding: 84 84 31
GlifName: T_
Width: 1243
Flags: HMW
LayerCount: 2
Fore
SplineSet
188 8 m 1
 818 8 l 1
 818 0 l 1
 188 0 l 1
 188 8 l 1
754 1500 m 1
 944 1500 l 1
 596 0 l 1
 406 0 l 1
 754 1500 l 1
1134 1492 m 2
 544 1492 l 2
 310 1492 216 1302 158 1050 c 1
 150 1050 l 1
 254 1500 l 1
 1444 1500 l 1
 1340 1050 l 1
 1332 1050 l 1
 1390 1304 1368 1492 1134 1492 c 2
EndSplineSet
EndChar

StartChar: U
Encoding: 85 85 32
GlifName: U_
Width: 1367
Flags: HMW
LayerCount: 2
Fore
SplineSet
1168 1500 m 1
 1558 1500 l 1
 1558 1492 l 1
 1168 1492 l 1
 1168 1500 l 1
248 1500 m 1
 818 1500 l 1
 818 1492 l 1
 248 1492 l 1
 248 1500 l 1
1374 1500 m 1
 1382 1500 l 1
 1142 460 l 2
 1070 146 934 -30 618 -30 c 0
 292 -30 122 132 198 460 c 2
 438 1500 l 1
 628 1500 l 1
 388 480 l 2
 330 230 364 -20 632 -20 c 0
 930 -20 1066 156 1134 460 c 2
 1374 1500 l 1
EndSplineSet
EndChar

StartChar: V
Encoding: 86 86 33
GlifName: V_
Width: 1439
Flags: HMW
LayerCount: 2
Fore
SplineSet
1640 1492 m 1
 1200 1492 l 1
 1200 1500 l 1
 1640 1500 l 1
 1640 1492 l 1
820 1492 m 1
 240 1492 l 1
 240 1500 l 1
 820 1500 l 1
 820 1492 l 1
718 232 m 1
 1446 1500 l 1
 1456 1500 l 1
 578 -30 l 1
 570 -30 l 1
 380 1500 l 1
 590 1500 l 1
 718 232 l 1
EndSplineSet
EndChar

StartChar: W
Encoding: 87 87 34
GlifName: W_
Width: 1925
Flags: HMW
LayerCount: 2
Fore
SplineSet
704 274 m 1
 1024 834 l 1
 1032 834 l 1
 546 -20 l 1
 536 -20 l 1
 424 1500 l 1
 614 1500 l 1
 704 274 l 1
1112 834 m 1
 1104 834 l 1
 1484 1500 l 1
 1492 1500 l 1
 1112 834 l 1
2126 1492 m 1
 1746 1492 l 1
 1746 1500 l 1
 2126 1500 l 1
 2126 1492 l 1
1650 1492 m 1
 240 1492 l 1
 240 1500 l 1
 1650 1500 l 1
 1650 1492 l 1
1226 274 m 1
 1926 1500 l 1
 1934 1500 l 1
 1068 -20 l 1
 1058 -20 l 1
 946 1500 l 1
 1136 1500 l 1
 1226 274 l 1
EndSplineSet
EndChar

StartChar: X
Encoding: 88 88 35
GlifName: X_
Width: 1449
Flags: HMW
LayerCount: 2
Fore
SplineSet
780 754 m 1
 768 754 l 1
 1346 1496 l 1
 1360 1496 l 1
 780 754 l 1
128 0 m 1
 114 0 l 1
 774 834 l 1
 786 834 l 1
 128 0 l 1
760 8 m 1
 1320 8 l 1
 1320 0 l 1
 760 0 l 1
 760 8 l 1
-100 8 m 1
 380 8 l 1
 380 0 l 1
 -100 0 l 1
 -100 8 l 1
870 1492 m 1
 310 1492 l 1
 310 1500 l 1
 870 1500 l 1
 870 1492 l 1
1570 1492 m 1
 1130 1492 l 1
 1130 1500 l 1
 1570 1500 l 1
 1570 1492 l 1
1182 0 m 1
 952 0 l 1
 450 1500 l 1
 672 1500 l 1
 1182 0 l 1
EndSplineSet
EndChar

StartChar: Y
Encoding: 89 89 36
GlifName: Y_
Width: 1449
Flags: HMW
LayerCount: 2
Fore
SplineSet
1650 1492 m 1
 1230 1492 l 1
 1230 1500 l 1
 1650 1500 l 1
 1650 1492 l 1
820 1492 m 1
 240 1492 l 1
 240 1500 l 1
 820 1500 l 1
 820 1492 l 1
330 8 m 1
 900 8 l 1
 900 0 l 1
 330 0 l 1
 330 8 l 1
864 756 m 1
 1464 1496 l 1
 1476 1496 l 1
 868 742 l 1
 700 0 l 1
 510 0 l 1
 680 754 l 1
 380 1500 l 1
 600 1500 l 1
 864 756 l 1
EndSplineSet
EndChar

StartChar: Z
Encoding: 90 90 37
GlifName: Z_
Width: 1097
Flags: HMW
LayerCount: 2
Fore
SplineSet
988 1492 m 1
 628 1492 l 2
 354 1492 256 1374 206 1160 c 1
 198 1160 l 1
 278 1500 l 1
 1228 1500 l 1
 1228 1492 l 1
 140 8 l 1
 560 8 l 2
 834 8 932 128 990 380 c 1
 998 380 l 1
 910 0 l 1
 -100 0 l 1
 -100 8 l 1
 988 1492 l 1
EndSplineSet
EndChar

StartChar: a
Encoding: 97 97 38
GlifName: a
Width: 1199
VWidth: 2309
Flags: HMW
LayerCount: 2
Fore
SplineSet
754 628 m 0
 754 774 706 904 606 904 c 0
 418 904 240 548 240 280 c 0
 240 114 288 2 390 2 c 0
 612 2 754 402 754 628 c 0
760 628 m 0
 760 412 632 -20 350 -20 c 0
 212 -20 32 60 32 320 c 0
 32 720 346 940 544 940 c 0
 696 940 760 812 760 628 c 0
1162 326 m 1
 1086 126 968 -20 806 -20 c 0
 712 -20 664 26 664 126 c 0
 664 136 666 158 668 170 c 2
 712 364 l 1
 748 508 l 1
 756 572 l 1
 838 920 l 1
 1018 920 l 1
 820 76 l 2
 818 64 816 50 816 40 c 0
 816 18 826 2 852 2 c 0
 964 2 1084 144 1152 330 c 1
 1162 326 l 1
EndSplineSet
EndChar

StartChar: b
Encoding: 98 98 39
GlifName: b
Width: 1115
VWidth: 2309
Flags: HMW
LayerCount: 2
Fore
SplineSet
418 1492 m 1
 264 1492 l 1
 264 1500 l 1
 600 1500 l 1
 320 280 l 1
 320 132 356 -12 478 -12 c 0
 686 -12 850 390 850 658 c 0
 850 806 802 914 700 914 c 0
 548 914 414 706 360 460 c 1
 352 460 l 1
 426 804 582 938 744 938 c 0
 878 938 1058 876 1058 620 c 0
 1058 200 772 -20 474 -20 c 0
 272 -20 172 114 132 240 c 1
 418 1492 l 1
EndSplineSet
EndChar

StartChar: c
Encoding: 99 99 40
GlifName: c
Width: 927
VWidth: 2309
Flags: HMW
LayerCount: 2
Fore
SplineSet
880 714 m 1
 874 830 784 926 618 926 c 0
 360 926 240 528 240 280 c 0
 240 112 264 -8 372 -8 c 0
 520 -8 704 88 800 286 c 1
 810 286 l 1
 718 92 532 -20 350 -20 c 0
 208 -20 32 60 32 320 c 0
 32 700 326 940 588 940 c 0
 772 940 890 846 890 702 c 0
 890 600 826 558 766 558 c 0
 716 558 652 590 652 670 c 0
 652 740 712 780 770 780 c 0
 838 780 870 754 880 714 c 1
EndSplineSet
EndChar

StartChar: d
Encoding: 100 100 41
GlifName: d
Width: 1199
VWidth: 2309
Flags: HMW
LayerCount: 2
Fore
SplineSet
1162 326 m 1
 1086 126 968 -20 806 -20 c 0
 712 -20 664 26 664 126 c 0
 664 136 666 158 668 170 c 2
 712 364 l 1
 748 508 l 1
 756 572 l 1
 962 1492 l 1
 776 1492 l 1
 776 1500 l 1
 1142 1500 l 1
 822 76 l 2
 820 64 818 50 818 40 c 0
 818 18 828 2 854 2 c 0
 966 2 1086 144 1154 330 c 1
 1162 326 l 1
754 628 m 0
 754 774 706 904 606 904 c 0
 418 904 240 548 240 280 c 0
 240 114 288 2 390 2 c 0
 612 2 754 402 754 628 c 0
760 628 m 0
 760 412 632 -20 350 -20 c 0
 212 -20 32 60 32 320 c 0
 32 720 346 940 544 940 c 0
 696 940 760 812 760 628 c 0
EndSplineSet
EndChar

StartChar: e
Encoding: 101 101 42
GlifName: e
Width: 927
VWidth: 2309
Flags: HMW
LayerCount: 2
Fore
SplineSet
240 280 m 0
 240 132 254 -6 372 -6 c 0
 574 -6 724 142 800 286 c 1
 810 286 l 1
 732 132 572 -20 350 -20 c 0
 188 -20 32 80 32 320 c 0
 32 706 332 940 594 940 c 0
 778 940 900 888 900 744 c 0
 900 440 424 440 202 440 c 1
 202 448 l 1
 420 448 708 476 708 744 c 0
 708 838 686 932 614 932 c 0
 436 932 240 608 240 280 c 0
EndSplineSet
EndChar

StartChar: f
Encoding: 102 102 43
GlifName: f
Width: 671
VWidth: 2309
Flags: HMW
LayerCount: 2
Fore
SplineSet
106 920 m 1
 746 920 l 1
 746 912 l 1
 106 912 l 1
 106 920 l 1
976 1360 m 1
 966 1424 908 1512 768 1512 c 0
 628 1512 530 1324 486 1080 c 2
 284 -24 l 2
 238 -274 68 -520 -192 -520 c 0
 -354 -520 -418 -406 -418 -322 c 0
 -418 -240 -364 -198 -304 -198 c 0
 -254 -198 -192 -226 -192 -306 c 0
 -192 -386 -254 -418 -312 -418 c 0
 -350 -418 -392 -394 -402 -360 c 1
 -392 -424 -332 -512 -192 -512 c 0
 -52 -512 48 -324 90 -80 c 2
 292 1024 l 2
 336 1276 508 1520 768 1520 c 0
 930 1520 994 1406 994 1322 c 0
 994 1240 940 1198 880 1198 c 0
 830 1198 768 1226 768 1306 c 0
 768 1386 830 1418 888 1418 c 0
 926 1418 966 1392 976 1360 c 1
EndSplineSet
EndChar

StartChar: g
Encoding: 103 103 44
GlifName: g
Width: 1103
VWidth: 2309
Flags: HMW
LayerCount: 2
Fore
SplineSet
254 -10 m 1
 164 -40 102 -160 102 -284 c 0
 102 -400 136 -510 288 -510 c 0
 486 -510 720 -396 720 -174 c 0
 720 -66 666 -18 556 -18 c 0
 514 -18 438 -18 394 -18 c 0
 214 -18 68 -6 68 118 c 0
 68 266 288 328 410 328 c 1
 410 322 l 1
 344 322 212 298 212 210 c 0
 212 156 316 138 426 138 c 0
 496 138 512 140 568 140 c 0
 718 140 802 88 802 -84 c 0
 802 -326 562 -520 282 -520 c 0
 56 -520 -88 -460 -88 -310 c 0
 -88 -108 160 -10 250 -10 c 2
 254 -10 l 1
1146 788 m 0
 1146 698 1094 668 1044 668 c 0
 994 668 944 702 944 768 c 0
 944 824 992 862 1048 862 c 0
 1100 862 1128 822 1134 798 c 1
 1124 880 1068 922 988 922 c 0
 908 922 782 844 704 690 c 1
 698 694 l 1
 778 856 908 930 988 930 c 0
 1090 930 1146 864 1146 788 c 0
400 328 m 0
 578 328 658 602 658 750 c 0
 658 838 618 932 540 932 c 0
 362 932 282 658 282 510 c 0
 282 422 322 328 400 328 c 0
400 320 m 0
 238 320 104 390 104 570 c 0
 104 790 318 940 540 940 c 0
 702 940 836 870 836 690 c 0
 836 470 622 320 400 320 c 0
EndSplineSet
EndChar

StartChar: h
Encoding: 104 104 45
GlifName: h
Width: 1139
VWidth: 2309
Flags: HMW
LayerCount: 2
Fore
SplineSet
756 616 m 2
 808 770 808 920 716 920 c 0
 546 920 370 652 300 346 c 1
 292 346 l 1
 362 650 532 940 758 940 c 0
 952 940 994 798 942 638 c 2
 758 76 l 2
 754 64 752 50 752 40 c 0
 752 18 764 2 790 2 c 0
 908 2 1024 144 1092 328 c 1
 1102 326 l 1
 1026 126 908 -20 746 -20 c 0
 652 -20 600 30 600 116 c 0
 600 146 606 170 610 184 c 2
 756 616 l 2
380 1492 m 1
 242 1492 l 1
 242 1500 l 1
 562 1500 l 1
 222 0 l 1
 42 0 l 1
 380 1492 l 1
EndSplineSet
EndChar

StartChar: i
Encoding: 105 105 46
GlifName: i
Width: 645
VWidth: 2309
Flags: HMW
LayerCount: 2
Fore
SplineSet
316 1400 m 0
 316 1466 370 1520 436 1520 c 0
 502 1520 556 1466 556 1400 c 0
 556 1334 502 1280 436 1280 c 0
 370 1280 316 1334 316 1400 c 0
600 326 m 1
 524 126 406 -20 244 -20 c 0
 150 -20 102 26 102 126 c 0
 102 136 104 158 106 170 c 2
 274 912 l 1
 132 912 l 1
 132 920 l 1
 456 920 l 1
 258 76 l 2
 256 64 254 50 254 40 c 0
 254 18 264 2 290 2 c 0
 410 2 524 146 592 330 c 1
 600 326 l 1
EndSplineSet
EndChar

StartChar: j
Encoding: 106 106 47
GlifName: j
Width: 523
VWidth: 2309
Flags: HMW
LayerCount: 2
Fore
SplineSet
336 1400 m 0
 336 1466 390 1520 456 1520 c 0
 522 1520 576 1466 576 1400 c 0
 576 1334 522 1280 456 1280 c 0
 390 1280 336 1334 336 1400 c 0
-338 -330 m 1
 -330 -418 -252 -512 -152 -512 c 0
 28 -512 36 -200 92 40 c 2
 296 912 l 1
 108 912 l 1
 108 920 l 1
 468 920 l 1
 272 -24 l 2
 220 -274 118 -520 -142 -520 c 0
 -284 -520 -348 -386 -348 -312 c 0
 -348 -230 -284 -178 -224 -178 c 0
 -174 -178 -122 -212 -122 -286 c 0
 -122 -360 -182 -398 -242 -398 c 0
 -290 -398 -326 -364 -338 -330 c 1
EndSplineSet
EndChar

StartChar: k
Encoding: 107 107 48
GlifName: k
Width: 1103
VWidth: 2309
Flags: HMW
LayerCount: 2
Fore
SplineSet
1066 326 m 5
 990 126 872 -20 710 -20 c 4
 616 -20 574 26 574 126 c 4
 574 136 576 158 578 170 c 6
 602 280 l 6
 628 396 698 570 550 570 c 4
 408 570 378 448 360 380 c 5
 352 380 l 5
 392 558 482 578 564 578 c 4
 702 578 826 502 766 242 c 6
 720 52 l 6
 720 48 718 38 718 34 c 4
 718 12 732 2 758 2 c 4
 872 2 990 146 1058 330 c 5
 1066 326 l 5
406 500 m 5
 411 507 l 5
 417 505 442 492 476 492 c 4
 574 492 610 594 662 722 c 4
 718 858 786 940 886 940 c 4
 976 940 1036 882 1036 778 c 4
 1036 688 984 658 934 658 c 4
 884 658 834 692 834 758 c 4
 834 814 874 852 930 852 c 4
 988 852 1014 816 1022 786 c 5
 1020 872 972 932 886 932 c 4
 790 932 726 850 672 716 c 4
 618 580 576 484 476 484 c 4
 438 484 416 494 406 500 c 5
438 1492 m 5
 260 1492 l 5
 260 1500 l 5
 620 1500 l 5
 272 0 l 5
 92 0 l 5
 438 1492 l 5
EndSplineSet
EndChar

StartChar: l
Encoding: 108 108 49
GlifName: l
Width: 617
VWidth: 2309
Flags: HMW
LayerCount: 2
Fore
SplineSet
580 326 m 1
 504 126 386 -20 224 -20 c 0
 130 -20 82 26 82 126 c 0
 82 136 84 158 86 170 c 2
 390 1492 l 1
 204 1492 l 1
 204 1500 l 1
 570 1500 l 1
 238 76 l 2
 236 64 234 50 234 40 c 0
 234 18 244 2 270 2 c 0
 394 2 508 158 572 330 c 1
 580 326 l 1
EndSplineSet
EndChar

StartChar: m
Encoding: 109 109 50
GlifName: m
Width: 1677
VWidth: 2309
Flags: HMW
LayerCount: 2
Fore
SplineSet
1294 616 m 2
 1346 770 1360 920 1268 920 c 0
 1098 920 932 652 856 346 c 1
 848 346 l 1
 924 650 1082 940 1308 940 c 0
 1502 940 1532 798 1480 638 c 2
 1296 76 l 2
 1292 64 1290 50 1290 40 c 0
 1290 18 1302 2 1328 2 c 0
 1454 2 1566 156 1632 330 c 1
 1640 326 l 1
 1564 126 1446 -20 1284 -20 c 0
 1190 -20 1138 30 1138 116 c 0
 1138 146 1144 170 1148 184 c 2
 1294 616 l 2
772 0 m 17
 592 0 l 1
 742 616 l 2
 780 774 808 920 716 920 c 0
 554 920 380 670 304 346 c 1
 296 346 l 1
 370 648 530 940 756 940 c 0
 950 940 968 800 928 638 c 2
 772 0 l 17
260 912 m 1
 122 912 l 1
 122 920 l 1
 442 920 l 1
 222 0 l 1
 42 0 l 1
 260 912 l 1
EndSplineSet
EndChar

StartChar: n
Encoding: 110 110 51
GlifName: n
Width: 1149
VWidth: 2309
Flags: HMW
LayerCount: 2
Fore
SplineSet
260 912 m 1
 122 912 l 1
 122 920 l 1
 442 920 l 1
 222 0 l 1
 42 0 l 1
 260 912 l 1
756 616 m 2
 808 770 810 920 718 920 c 0
 548 920 376 652 304 346 c 1
 296 346 l 1
 368 650 532 940 758 940 c 0
 952 940 994 798 942 638 c 2
 758 76 l 2
 754 64 752 50 752 40 c 0
 752 18 764 2 790 2 c 0
 908 2 1034 144 1102 328 c 1
 1112 326 l 1
 1036 126 908 -20 746 -20 c 0
 652 -20 600 30 600 116 c 0
 600 146 604 168 610 184 c 2
 756 616 l 2
EndSplineSet
EndChar

StartChar: o
Encoding: 111 111 52
GlifName: o
Width: 1043
VWidth: 2309
Flags: HMW
LayerCount: 2
Fore
SplineSet
390 -20 m 0
 208 -20 32 60 32 320 c 0
 32 700 326 940 628 940 c 0
 810 940 986 860 986 600 c 0
 986 220 692 -20 390 -20 c 0
390 -10 m 0
 648 -10 778 392 778 640 c 0
 778 808 736 930 628 930 c 0
 370 930 240 528 240 280 c 0
 240 112 282 -10 390 -10 c 0
EndSplineSet
EndChar

StartChar: p
Encoding: 112 112 53
GlifName: p
Width: 1099
VWidth: 2309
Flags: HMW
LayerCount: 2
Fore
SplineSet
324 290 m 0
 324 144 372 16 472 16 c 0
 660 16 844 370 844 638 c 0
 844 804 790 918 688 918 c 0
 466 918 324 516 324 290 c 0
316 290 m 0
 316 506 446 940 728 940 c 0
 866 940 1052 858 1052 598 c 0
 1052 198 732 -20 534 -20 c 0
 382 -20 316 106 316 290 c 0
-188 -492 m 1
 262 -492 l 1
 262 -500 l 1
 -188 -500 l 1
 -188 -492 l 1
268 912 m 1
 126 912 l 1
 126 920 l 1
 450 920 l 1
 370 580 l 1
 338 460 l 1
 326 380 l 1
 122 -500 l 1
 -58 -500 l 1
 268 912 l 1
EndSplineSet
EndChar

StartChar: q
Encoding: 113 113 54
GlifName: q
Width: 1089
VWidth: 2309
Flags: HMW
LayerCount: 2
Fore
SplineSet
830 -492 m 1
 830 -500 l 1
 380 -500 l 1
 380 -492 l 1
 830 -492 l 1
690 -500 m 17
 510 -500 l 1
 712 364 l 5
 724 416 739 463 748 520 c 5
 756 576 l 1
 834 900 l 1
 1022 940 l 1
 690 -500 l 17
754 628 m 0
 754 774 706 904 606 904 c 0
 418 904 240 548 240 280 c 0
 240 114 288 2 390 2 c 0
 612 2 754 402 754 628 c 0
760 628 m 0
 760 412 632 -20 350 -20 c 0
 212 -20 32 60 32 320 c 0
 32 720 346 940 544 940 c 0
 696 940 760 812 760 628 c 0
EndSplineSet
EndChar

StartChar: r
Encoding: 114 114 55
GlifName: r
Width: 789
VWidth: 2309
Flags: HMW
LayerCount: 2
Fore
SplineSet
842 778 m 0
 842 710 802 656 726 656 c 0
 660 656 608 692 608 766 c 0
 608 836 664 882 722 882 c 0
 768 882 808 854 824 810 c 1
 812 876 744 932 658 932 c 0
 450 932 358 542 310 346 c 1
 302 346 l 1
 354 590 454 940 658 940 c 0
 750 940 842 876 842 778 c 0
270 912 m 1
 122 912 l 1
 122 920 l 1
 442 920 l 1
 232 0 l 1
 52 0 l 1
 270 912 l 1
EndSplineSet
EndChar

StartChar: s
Encoding: 115 115 56
GlifName: s
Width: 783
VWidth: 2309
Flags: HMW
LayerCount: 2
Fore
SplineSet
682 768 m 1
 668 860 564 930 430 930 c 0
 324 930 236 866 236 774 c 0
 236 556 666 550 666 284 c 0
 666 96 486 -24 292 -24 c 0
 94 -24 -8 100 -8 210 c 0
 -8 292 56 334 116 334 c 0
 166 334 230 302 230 222 c 0
 230 152 174 112 116 112 c 0
 42 112 12 162 4 200 c 1
 8 92 110 -16 292 -16 c 0
 432 -16 520 78 520 178 c 0
 520 390 104 362 104 654 c 0
 104 852 284 938 430 938 c 0
 586 938 696 844 696 750 c 0
 696 668 646 636 586 636 c 0
 536 636 482 668 482 738 c 0
 482 798 534 838 580 838 c 0
 640 838 672 806 682 768 c 1
EndSplineSet
EndChar

StartChar: t
Encoding: 116 116 57
GlifName: t
Width: 631
VWidth: 2309
Flags: HMW
LayerCount: 2
Fore
SplineSet
74 920 m 1
 614 920 l 1
 614 912 l 1
 74 912 l 1
 74 920 l 1
590 326 m 1
 514 126 396 -20 234 -20 c 0
 140 -20 92 26 92 126 c 0
 92 136 94 158 96 170 c 2
 292 1120 l 1
 470 1120 l 1
 250 76 l 2
 248 64 246 50 246 40 c 0
 246 18 256 2 282 2 c 0
 398 2 514 146 582 330 c 1
 590 326 l 1
EndSplineSet
EndChar

StartChar: u
Encoding: 117 117 58
GlifName: u
Width: 1213
VWidth: 2309
Flags: HMW
LayerCount: 2
Fore
SplineSet
452 920 m 1
 298 268 l 2
 262 110 266 4 358 4 c 0
 510 4 696 248 774 574 c 1
 780 574 l 1
 704 270 536 -20 310 -20 c 0
 116 -20 90 118 126 282 c 2
 268 912 l 1
 128 912 l 1
 128 920 l 1
 452 920 l 1
1176 326 m 1
 1100 126 982 -20 820 -20 c 0
 726 -20 678 26 678 126 c 0
 678 136 680 158 682 170 c 2
 850 920 l 1
 1032 920 l 1
 834 76 l 2
 832 64 830 50 830 40 c 0
 830 18 840 2 866 2 c 0
 992 2 1104 158 1168 330 c 1
 1176 326 l 1
EndSplineSet
EndChar

StartChar: v
Encoding: 118 118 59
GlifName: v
Width: 1051
VWidth: 2309
Flags: HMW
LayerCount: 2
Fore
SplineSet
436 248 m 2
 410 90 386 0 498 0 c 0
 698 0 1014 382 1014 688 c 0
 1014 778 996 832 982 856 c 1
 982 818 958 710 866 710 c 0
 778 710 746 774 746 824 c 0
 746 884 794 938 868 938 c 0
 994 938 1024 810 1024 688 c 0
 1024 384 712 -20 466 -20 c 0
 272 -20 226 98 256 262 c 2
 362 844 l 2
 364 856 366 870 366 880 c 0
 366 902 354 918 328 918 c 0
 208 918 90 758 30 590 c 1
 22 594 l 1
 98 794 216 940 378 940 c 0
 472 940 524 890 524 804 c 0
 524 774 518 750 516 736 c 2
 436 248 l 2
EndSplineSet
Substitution2: "'ss04' Style Set 4 lookup 5-1" v.alt
EndChar

StartChar: w
Encoding: 119 119 60
GlifName: w
Width: 1597
VWidth: 2309
Flags: HMW
LayerCount: 2
Fore
SplineSet
356 268 m 2
 304 114 320 4 412 4 c 0
 580 4 754 268 830 574 c 1
 836 574 l 1
 760 270 592 -20 366 -20 c 0
 172 -20 130 122 182 282 c 2
 364 844 l 2
 368 856 370 870 370 880 c 0
 370 902 358 918 332 918 c 0
 204 918 94 762 30 590 c 1
 22 594 l 1
 98 794 216 940 378 940 c 0
 472 940 524 890 524 804 c 0
 524 774 518 750 514 736 c 2
 356 268 l 2
912 920 m 1
 1092 920 l 1
 954 342 l 2
 914 174 922 -4 1090 -4 c 0
 1396 -4 1560 436 1560 688 c 0
 1560 758 1548 814 1538 834 c 1
 1536 756 1482 710 1408 710 c 0
 1328 710 1290 774 1290 824 c 0
 1290 884 1338 938 1412 938 c 0
 1538 938 1570 810 1570 688 c 0
 1570 468 1430 -20 1060 -20 c 0
 882 -20 714 98 806 482 c 1
 912 920 l 1
EndSplineSet
EndChar

StartChar: x
Encoding: 120 120 61
GlifName: x
Width: 1033
VWidth: 2309
Flags: HMW
LayerCount: 2
Fore
SplineSet
516 484 m 1
 636 680 736 940 894 940 c 0
 1016 940 1056 852 1056 788 c 0
 1056 716 1016 668 940 668 c 0
 860 668 830 732 830 782 c 0
 830 836 876 892 938 892 c 0
 990 892 1022 868 1036 826 c 1
 1028 872 988 932 896 932 c 0
 740 932 644 668 528 478 c 1
 516 484 l 1
544 554 m 1
 380 278 252 -20 94 -20 c 0
 -28 -20 -68 68 -68 132 c 0
 -68 204 -28 252 48 252 c 0
 128 252 158 188 158 138 c 0
 158 84 114 28 46 28 c 0
 -8 28 -44 64 -54 104 c 1
 -38 24 18 -12 90 -12 c 0
 242 -12 376 290 536 560 c 1
 544 554 l 1
954 218 m 1
 888 38 798 -20 694 -20 c 0
 580 -20 518 50 492 146 c 0
 446 318 350 724 298 868 c 0
 290 890 280 916 244 916 c 0
 182 916 110 826 64 696 c 1
 58 698 l 1
 124 878 200 944 324 944 c 0
 438 944 492 874 518 778 c 0
 566 598 640 256 710 62 c 0
 718 40 744 14 770 14 c 0
 816 14 890 70 946 220 c 1
 954 218 l 1
EndSplineSet
EndChar

StartChar: y
Encoding: 121 121 62
GlifName: y
Width: 1121
VWidth: 2309
Flags: HMW
LayerCount: 2
Fore
SplineSet
650 -116 m 5
 504 136 362 720 308 864 c 0
 300 886 290 912 254 912 c 0
 190 912 112 810 74 690 c 1
 64 694 l 1
 130 874 206 940 330 940 c 0
 444 940 498 868 526 772 c 0
 580 592 652 256 782 62 c 5
 739 2 695 -57 650 -116 c 5
118 -520 m 0
 -16 -520 -102 -432 -102 -302 c 0
 -102 -236 -54 -170 22 -170 c 0
 72 -170 134 -202 134 -278 c 0
 134 -344 86 -386 28 -386 c 0
 -34 -386 -82 -352 -92 -306 c 1
 -92 -428 -6 -512 118 -512 c 0
 482 -512 1090 476 1090 730 c 0
 1090 794 1072 850 1050 878 c 1
 1080 762 996 712 942 712 c 0
 862 712 818 776 818 826 c 0
 818 886 868 940 942 940 c 0
 1064 940 1100 814 1100 732 c 0
 1100 472 488 -520 118 -520 c 0
EndSplineSet
EndChar

StartChar: z
Encoding: 122 122 63
GlifName: z
Width: 771
VWidth: 2309
Flags: HMW
LayerCount: 2
Fore
SplineSet
46 560 m 1
 130 920 l 1
 238 860 358 842 450 842 c 0
 546 842 722 852 786 916 c 1
 794 906 l 1
 638 768 490 690 350 690 c 0
 262 690 158 726 106 774 c 1
 54 560 l 1
 46 560 l 1
-82 -12 m 1
 -98 -14 l 1
 780 904 l 1
 794 906 l 1
 -82 -12 l 1
730 312 m 1
 720 270 684 232 628 232 c 0
 578 232 526 272 526 332 c 0
 526 402 580 434 630 434 c 0
 690 434 740 402 740 320 c 0
 740 220 630 -20 466 -20 c 0
 344 -20 298 78 166 78 c 0
 70 78 -24 44 -88 -20 c 1
 -96 -14 l 1
 42 106 186 190 326 190 c 0
 434 190 476 104 588 104 c 0
 686 104 728 258 730 312 c 1
EndSplineSet
EndChar

StartChar: comma
Encoding: 44 44 65
GlifName: comma
Width: 429
Flags: HMW
LayerCount: 2
Fore
SplineSet
20 92 m 0
 20 158 78 216 154 216 c 0
 232 216 288 168 288 62 c 0
 288 -118 106 -312 -74 -312 c 1
 -74 -304 l 1
 88 -304 290 -114 274 90 c 1
 270 32 224 -20 144 -20 c 0
 58 -20 20 32 20 92 c 0
EndSplineSet
EndChar

StartChar: exclam
Encoding: 33 33 67
GlifName: exclam
Width: 637
Flags: HMW
LayerCount: 2
Fore
SplineSet
656 1378 m 0
 616 1166 422 716 342 416 c 1
 334 416 l 1
 394 716 420 1066 420 1318 c 0
 420 1430 450 1516 548 1516 c 0
 618 1516 672 1460 656 1378 c 0
140 98 m 0
 140 164 192 216 258 216 c 0
 324 216 376 164 376 98 c 0
 376 32 324 -20 258 -20 c 0
 192 -20 140 32 140 98 c 0
EndSplineSet
EndChar

StartChar: quotesingle
Encoding: 39 39 70
GlifName: quotesingle
Width: 399
Flags: HMW
LayerCount: 2
Fore
SplineSet
482 1378 m 0
 444 1228 352 1176 292 976 c 1
 284 976 l 1
 334 1156 304 1212 282 1362 c 24
 280 1376 280 1386 280 1398 c 0
 280 1476 332 1520 390 1520 c 0
 448 1520 488 1476 488 1418 c 0
 488 1406 486 1392 482 1378 c 0
EndSplineSet
EndChar

StartChar: question
Encoding: 63 63 75
GlifName: question
Width: 1099
Flags: HMW
LayerCount: 2
Fore
SplineSet
574 684 m 1
 518 418 l 1
 510 418 l 1
 568 690 l 1
 802 752 988 974 988 1220 c 0
 988 1368 950 1510 772 1510 c 0
 528 1510 356 1340 352 1202 c 1
 358 1240 396 1280 454 1280 c 0
 512 1280 568 1240 568 1170 c 0
 568 1090 504 1058 454 1058 c 0
 394 1058 340 1100 340 1182 c 0
 340 1346 528 1520 792 1520 c 0
 1014 1520 1190 1420 1190 1180 c 0
 1190 910 884 700 574 684 c 1
EndSplineSet
Refer: 1 46 N 1 0 0 1 298 0 2
EndChar

StartChar: parenleft
Encoding: 40 40 76
GlifName: parenleft
Width: 723
Flags: HMW
LayerCount: 2
Fore
SplineSet
550 -332 m 1
 546 -340 l 1
 320 -240 164 24 164 370 c 0
 164 956 580 1440 966 1600 c 1
 970 1592 l 1
 662 1432 348 814 348 330 c 0
 348 -34 402 -192 550 -332 c 1
EndSplineSet
EndChar

StartChar: asterisk
Encoding: 42 42 78
GlifName: asterisk
Width: 1269
VWidth: 2309
Flags: HMW
LayerCount: 2
Fore
SplineSet
514 1334 m 24
 632 1240 566 1152 756 1042 c 1
 750 1034 l 1
 560 1144 552 1084 412 1142 c 0
 334 1176 288 1250 324 1314 c 0
 362 1384 446 1378 514 1334 c 24
310 914 m 24
 450 970 560 932 750 1042 c 1
 756 1034 l 1
 566 924 526 838 408 744 c 24
 344 700 262 678 222 750 c 0
 186 814 234 882 310 914 c 24
584 654 m 0
 626 804 720 860 750 1040 c 1
 758 1040 l 1
 718 820 780 804 780 654 c 0
 780 560 738 496 668 496 c 0
 598 496 558 564 584 654 c 0
998 752 m 24
 880 846 940 924 750 1034 c 1
 756 1042 l 1
 946 932 956 994 1096 938 c 24
 1174 904 1220 830 1184 766 c 0
 1146 698 1062 710 998 752 c 24
1198 1166 m 24
 1058 1110 946 1144 756 1034 c 1
 750 1042 l 1
 940 1152 982 1242 1100 1336 c 24
 1164 1380 1246 1402 1286 1330 c 0
 1322 1266 1274 1198 1198 1166 c 24
924 1426 m 0
 882 1276 788 1220 758 1040 c 1
 750 1040 l 1
 790 1260 728 1276 728 1426 c 0
 728 1520 770 1584 840 1584 c 0
 910 1584 950 1516 924 1426 c 0
EndSplineSet
EndChar

StartChar: at
Encoding: 64 64 79
GlifName: at
Width: 2019
VWidth: 2309
Flags: HMW
LayerCount: 2
Fore
SplineSet
1232 694 m 0
 1232 406 1068 140 868 140 c 0
 710 140 568 252 568 460 c 0
 568 760 798 1058 1036 1058 c 0
 1198 1058 1232 858 1232 694 c 0
1226 692 m 0
 1226 776 1218 1044 1050 1044 c 0
 902 1044 770 692 770 444 c 0
 770 310 800 154 892 154 c 0
 1062 154 1226 418 1226 692 c 0
1180 420 m 2
 1324 1040 l 1
 1504 1040 l 1
 1360 420 l 2
 1354 394 1264 152 1418 152 c 0
 1708 152 1902 486 1902 802 c 0
 1902 1162 1670 1572 1168 1572 c 0
 590 1572 118 1044 118 422 c 0
 118 -200 478 -420 838 -420 c 0
 1164 -420 1394 -318 1562 -122 c 1
 1570 -128 l 1
 1402 -324 1164 -428 838 -428 c 0
 472 -428 110 -206 110 422 c 0
 110 1048 584 1580 1170 1580 c 0
 1676 1580 1910 1168 1910 802 c 0
 1910 482 1724 136 1382 136 c 0
 1204 136 1152 296 1180 420 c 2
EndSplineSet
EndChar

StartChar: dollar
Encoding: 36 36 80
GlifName: dollar
Width: 1109
Flags: HMW
LayerCount: 2
Fore
SplineSet
708 1660 m 1
 718 1660 l 1
 298 -160 l 1
 288 -160 l 1
 708 1660 l 1
892 1660 m 1
 902 1660 l 1
 482 -160 l 1
 472 -160 l 1
 892 1660 l 1
400 1228 m 0
 400 840 1030 960 1030 420 c 0
 1030 140 792 -30 510 -30 c 0
 238 -30 60 150 60 290 c 0
 60 382 112 454 200 454 c 0
 260 454 328 410 328 322 c 0
 328 242 262 192 194 192 c 0
 126 192 80 242 72 280 c 1
 88 124 274 -22 510 -22 c 0
 722 -22 850 152 850 330 c 0
 850 760 240 590 240 1090 c 0
 240 1330 472 1520 714 1520 c 0
 930 1520 1130 1372 1130 1210 c 0
 1130 1118 1078 1046 990 1046 c 0
 930 1046 862 1090 862 1178 c 0
 862 1258 928 1308 996 1308 c 0
 1060 1308 1106 1262 1116 1220 c 1
 1110 1370 930 1506 734 1506 c 0
 522 1506 400 1386 400 1228 c 0
EndSplineSet
EndChar

StartChar: numbersign
Encoding: 35 35 81
GlifName: numbersign
Width: 1259
Flags: HMW
LayerCount: 2
Fore
SplineSet
132 504 m 1
 1212 504 l 1
 1212 494 l 1
 132 494 l 1
 132 504 l 1
232 1036 m 1
 1312 1036 l 1
 1312 1026 l 1
 232 1026 l 1
 232 1036 l 1
1098 1508 m 1
 1106 1510 l 1
 756 -10 l 1
 748 -12 l 1
 1098 1508 l 1
698 1510 m 1
 706 1510 l 1
 356 -10 l 1
 348 -10 l 1
 698 1510 l 1
EndSplineSet
EndChar

StartChar: slash
Encoding: 47 47 82
GlifName: slash
Width: 1039
Flags: HMW
LayerCount: 2
Fore
SplineSet
1230 1560 m 1
 1240 1560 l 1
 -50 -300 l 1
 -60 -300 l 1
 1230 1560 l 1
EndSplineSet
EndChar

StartChar: percent
Encoding: 37 37 83
GlifName: percent
Width: 2000
Flags: HMW
LayerCount: 2
Fore
SplineSet
1460 -20 m 0
 1274 -20 1160 74 1160 280 c 0
 1160 606 1374 860 1640 860 c 0
 1826 860 1940 766 1940 560 c 0
 1940 234 1726 -20 1460 -20 c 0
1640 852 m 0
 1492 852 1360 504 1360 240 c 0
 1360 98 1392 -12 1460 -12 c 0
 1608 -12 1740 304 1740 568 c 0
 1740 710 1708 852 1640 852 c 0
1778 1500 m 1
 1790 1500 l 1
 398 0 l 1
 386 0 l 1
 1778 1500 l 1
550 640 m 0
 364 640 250 734 250 940 c 0
 250 1266 464 1520 730 1520 c 0
 916 1520 1030 1426 1030 1220 c 0
 1030 894 816 640 550 640 c 0
730 1512 m 0
 582 1512 450 1164 450 900 c 0
 450 758 482 648 550 648 c 0
 698 648 830 996 830 1260 c 0
 830 1402 798 1512 730 1512 c 0
EndSplineSet
EndChar

StartChar: hyphen
Encoding: 45 45 85
GlifName: hyphen
Width: 719
Flags: HMW
LayerCount: 2
Fore
SplineSet
166 554 m 1
 646 554 l 1
 646 546 l 1
 166 546 l 1
 166 554 l 1
EndSplineSet
EndChar

StartChar: plus
Encoding: 43 43 87
GlifName: plus
Width: 1059
Flags: HMW
LayerCount: 2
Fore
SplineSet
496 220 m 1
 686 1040 l 1
 694 1040 l 1
 504 220 l 1
 496 220 l 1
186 636 m 1
 1006 636 l 1
 1006 628 l 1
 186 628 l 1
 186 636 l 1
EndSplineSet
EndChar

StartChar: less
Encoding: 60 60 89
GlifName: less
Width: 1119
Flags: HMW
LayerCount: 2
Fore
SplineSet
220 772 m 1
 220 780 l 1
 1180 1200 l 1
 1180 1192 l 1
 220 772 l 1
220 770 m 1
 220 778 l 1
 1000 358 l 1
 1000 350 l 1
 220 770 l 1
EndSplineSet
EndChar

StartChar: backslash
Encoding: 92 92 91
GlifName: backslash
Width: 1039
Flags: HMW
LayerCount: 2
Fore
SplineSet
368 1560 m 1
 820 -300 l 1
 812 -300 l 1
 360 1560 l 1
 368 1560 l 1
EndSplineSet
EndChar

StartChar: bracketleft
Encoding: 91 91 92
GlifName: bracketleft
Width: 669
Flags: HMW
LayerCount: 2
Fore
SplineSet
400 1560 m 1
 880 1560 l 1
 880 1552 l 1
 576 1552 l 1
 164 -292 l 1
 460 -292 l 1
 460 -300 l 1
 -20 -300 l 1
 400 1560 l 1
EndSplineSet
EndChar

StartChar: braceleft
Encoding: 123 123 93
GlifName: braceleft
Width: 543
VWidth: 2309
Flags: HMW
LayerCount: 2
Fore
SplineSet
764 1560 m 1
 764 1552 l 1
 580 1552 490 1394 490 1232 c 0
 490 1120 508 1062 508 902 c 0
 508 736 318 648 170 628 c 1
 170 636 l 1
 230 656 340 712 340 814 c 0
 340 920 304 968 304 1142 c 0
 304 1380 434 1560 764 1560 c 1
344 -300 m 1
 94 -300 10 -238 10 -80 c 0
 10 154 270 364 270 490 c 0
 270 572 230 606 170 626 c 1
 170 634 l 1
 318 614 384 566 384 440 c 0
 384 240 196 60 196 -92 c 0
 196 -196 220 -292 344 -292 c 1
 344 -300 l 1
EndSplineSet
EndChar

StartChar: bar
Encoding: 124 124 96
GlifName: bar
Width: 459
VWidth: 2309
Flags: HMW
LayerCount: 2
Fore
SplineSet
508 1560 m 1
 516 1560 l 1
 36 -500 l 1
 28 -500 l 1
 508 1560 l 1
EndSplineSet
EndChar

StartChar: cent
Encoding: 162 162 98
GlifName: cent
Width: 927
VWidth: 2309
Flags: HMW
LayerCount: 2
Fore
SplineSet
666 1110 m 1
 326 -170 l 1
 316 -170 l 1
 656 1110 l 1
 666 1110 l 1
EndSplineSet
Refer: 40 99 N 1 0 0 1 0 0 2
EndChar

StartChar: sterling
Encoding: 163 163 99
GlifName: sterling
Width: 1250
VWidth: 2309
Flags: HMW
LayerCount: 2
Fore
SplineSet
1184 314 m 1
 1144 24 962 -60 784 -60 c 0
 510 -60 420 60 294 60 c 0
 212 60 114 20 74 -40 c 1
 68 -40 l 1
 128 108 240 194 424 194 c 0
 624 194 644 126 832 126 c 0
 994 126 1136 150 1176 314 c 1
 1184 314 l 1
1030 810 m 1
 1030 802 l 1
 130 802 l 1
 130 810 l 1
 1030 810 l 1
396 1020 m 0
 396 1320 646 1520 1008 1520 c 0
 1272 1520 1404 1356 1404 1192 c 0
 1404 1110 1346 1068 1286 1068 c 0
 1236 1068 1172 1100 1172 1180 c 0
 1172 1250 1228 1290 1286 1290 c 0
 1344 1290 1384 1248 1392 1210 c 1
 1392 1344 1272 1508 1028 1508 c 0
 750 1508 618 1248 618 1100 c 0
 618 962 660 870 660 700 c 0
 660 320 46 270 72 -40 c 1
 64 -40 l 1
 26 238 458 394 458 622 c 0
 458 730 396 850 396 1020 c 0
EndSplineSet
EndChar

StartChar: section
Encoding: 167 167 101
GlifName: section
Width: 947
VWidth: 2309
Flags: HMW
LayerCount: 2
Fore
SplineSet
402 1268 m 0
 402 1056 916 1106 916 800 c 0
 916 636 750 580 642 508 c 1
 634 510 l 1
 700 554 762 626 762 706 c 0
 762 928 286 852 286 1196 c 0
 286 1404 486 1520 676 1520 c 0
 872 1520 984 1384 984 1252 c 0
 984 1130 934 1080 864 1080 c 0
 804 1080 756 1120 756 1192 c 0
 756 1256 812 1302 870 1302 c 0
 928 1302 968 1260 976 1248 c 1
 976 1366 886 1510 676 1510 c 0
 530 1510 402 1402 402 1268 c 0
800 324 m 0
 800 116 600 -20 370 -20 c 0
 194 -20 22 70 22 262 c 0
 22 344 82 426 162 426 c 0
 222 426 270 386 270 314 c 0
 270 250 214 204 138 204 c 0
 76 204 38 236 30 274 c 1
 26 80 188 -10 370 -10 c 0
 576 -10 664 148 664 242 c 0
 664 474 138 404 138 690 c 0
 138 834 296 948 384 1000 c 1
 392 1000 l 1
 366 976 326 894 326 814 c 0
 326 552 800 688 800 324 c 0
EndSplineSet
EndChar

StartChar: brokenbar
Encoding: 166 166 102
GlifName: brokenbar
Width: 439
VWidth: 2309
Flags: HMW
LayerCount: 2
Fore
SplineSet
212 332 m 1
 220 332 l 1
 28 -500 l 1
 20 -500 l 1
 212 332 l 1
496 1560 m 1
 504 1560 l 1
 332 818 l 1
 324 818 l 1
 496 1560 l 1
EndSplineSet
EndChar

StartChar: asciitilde
Encoding: 126 126 104
GlifName: asciitilde
Width: 1375
VWidth: 2309
Flags: HMW
LayerCount: 2
Fore
SplineSet
548 874 m 0
 424 874 348 830 308 686 c 1
 300 686 l 1
 340 916 460 1020 618 1020 c 0
 838 1020 858 832 1048 832 c 0
 1192 832 1268 876 1308 1020 c 1
 1316 1020 l 1
 1276 790 1156 686 998 686 c 0
 764 686 712 874 548 874 c 0
EndSplineSet
EndChar

StartChar: copyright
Encoding: 169 169 105
GlifName: copyright
Width: 1739
Flags: HMW
LayerCount: 2
Fore
SplineSet
170 610 m 0
 170 1076 614 1520 1080 1520 c 0
 1466 1520 1750 1276 1750 890 c 0
 1750 424 1306 -20 840 -20 c 0
 454 -20 170 224 170 610 c 0
178 610 m 0
 178 228 458 -12 840 -12 c 0
 1300 -12 1742 428 1742 890 c 0
 1742 1272 1462 1512 1080 1512 c 0
 620 1512 178 1072 178 610 c 0
EndSplineSet
Refer: 14 67 N 0.6 0 0 0.6 464 300 2
EndChar

StartChar: registered
Encoding: 174 174 106
GlifName: registered
Width: 1739
Flags: HMW
LayerCount: 2
Fore
SplineSet
170 610 m 0
 170 1076 614 1520 1080 1520 c 0
 1466 1520 1750 1276 1750 890 c 0
 1750 424 1306 -20 840 -20 c 0
 454 -20 170 224 170 610 c 0
178 610 m 0
 178 228 458 -12 840 -12 c 0
 1300 -12 1742 428 1742 890 c 0
 1742 1272 1462 1512 1080 1512 c 0
 620 1512 178 1072 178 610 c 0
EndSplineSet
Refer: 29 82 N 0.6 0 0 0.6 516 296 2
EndChar

StartChar: logicalnot
Encoding: 172 172 107
GlifName: logicalnot
Width: 971
Flags: HMW
LayerCount: 2
Fore
SplineSet
1022 1222 m 1
 300 1222 l 1
 300 1230 l 1
 1032 1230 l 1
 942 826 l 1
 934 826 l 1
 1022 1222 l 1
EndSplineSet
EndChar

StartChar: guillemotleft
Encoding: 171 171 108
GlifName: guillemotleft
Width: 1389
Flags: HMW
LayerCount: 2
Fore
SplineSet
962 776 m 1
 1274 294 l 1
 1270 290 l 1
 710 750 l 1
 710 800 l 1
 1490 1260 l 1
 1494 1256 l 1
 962 776 l 1
402 776 m 1
 714 294 l 1
 710 290 l 1
 150 750 l 1
 150 800 l 1
 930 1260 l 1
 934 1256 l 1
 402 776 l 1
EndSplineSet
EndChar

StartChar: mu
Encoding: 181 181 111
GlifName: mu
Width: 1213
VWidth: 2309
Flags: HMW
LayerCount: 2
Fore
SplineSet
26 -182 m 2
 -16 -370 16 -508 192 -512 c 1
 246 -508 l 1
 192 -498 130 -462 130 -378 c 0
 130 -306 190 -250 256 -250 c 0
 322 -250 386 -304 386 -380 c 0
 386 -458 338 -520 192 -520 c 0
 12 -520 -26 -372 18 -182 c 2
 208 642 l 1
 216 642 l 1
 26 -182 l 2
EndSplineSet
Refer: 58 117 N 1 0 0 1 0 0 2
EndChar

StartChar: asciicircum
Encoding: 94 94 113
GlifName: asciicircum
Width: 1089
Flags: HMW
LayerCount: 2
Fore
SplineSet
816 1446 m 1
 424 1256 l 1
 420 1260 l 1
 760 1540 l 1
 890 1540 l 1
 1110 1260 l 1
 1106 1256 l 1
 816 1446 l 1
EndSplineSet
EndChar

StartChar: degree
Encoding: 176 176 115
GlifName: degree
Width: 639
Flags: HMW
LayerCount: 2
Fore
SplineSet
388 1360 m 0
 388 1492 496 1600 628 1600 c 0
 760 1600 868 1492 868 1360 c 0
 868 1228 760 1120 628 1120 c 0
 496 1120 388 1228 388 1360 c 0
438 1360 m 0
 438 1250 518 1170 628 1170 c 0
 738 1170 818 1250 818 1360 c 0
 818 1470 738 1550 628 1550 c 0
 518 1550 438 1470 438 1360 c 0
EndSplineSet
EndChar

StartChar: onequarter
Encoding: 188 188 119
GlifName: onequarter
Width: 1281
Flags: HMW
LayerCount: 2
Fore
SplineSet
1264 1300 m 1
 1272 1300 l 1
 -26 -200 l 1
 -34 -200 l 1
 1264 1300 l 1
EndSplineSet
Refer: 6 52 N 0.6 0 0 0.6 480 -206 2
Refer: 3 49 N 0.6 0 0 0.6 204 712 2
EndChar

StartChar: onehalf
Encoding: 189 189 120
GlifName: onehalf
Width: 1339
Flags: HMW
LayerCount: 2
Fore
SplineSet
1264 1300 m 1
 1272 1300 l 1
 -26 -200 l 1
 -34 -200 l 1
 1264 1300 l 1
EndSplineSet
Refer: 4 50 N 0.6 0 0 0.6 682 -202 2
Refer: 3 49 N 0.6 0 0 0.6 204 712 2
EndChar

StartChar: threequarters
Encoding: 190 190 121
GlifName: threequarters
Width: 1401
Flags: HMW
LayerCount: 2
Fore
SplineSet
1384 1300 m 1
 1392 1300 l 1
 94 -200 l 1
 86 -200 l 1
 1384 1300 l 1
EndSplineSet
Refer: 5 51 N 0.6 0 0 0.6 170 708 2
Refer: 6 52 N 0.6 0 0 0.6 600 -206 2
EndChar

StartChar: grave
Encoding: 96 96 123
GlifName: grave
Width: 789
Flags: HMW
LayerCount: 2
Fore
SplineSet
448 1440 m 2
 410 1442 378 1472 378 1510 c 0
 378 1548 412 1590 468 1576 c 2
 942 1444 l 1
 938 1436 l 1
 448 1440 l 2
EndSplineSet
EndChar

StartChar: acute
Encoding: 180 180 124
GlifName: acute
Width: 789
Flags: HMW
LayerCount: 2
Fore
SplineSet
950 1440 m 2
 460 1436 l 1
 456 1444 l 1
 930 1576 l 2
 986 1590 1020 1548 1020 1510 c 0
 1020 1472 988 1442 950 1440 c 2
EndSplineSet
EndChar

StartChar: multiply
Encoding: 215 215 127
GlifName: multiply
Width: 1059
Flags: HMW
LayerCount: 2
Fore
SplineSet
816 336 m 1
 366 916 l 1
 374 924 l 1
 824 344 l 1
 816 336 l 1
234 346 m 1
 944 926 l 1
 952 918 l 1
 242 338 l 1
 234 346 l 1
EndSplineSet
EndChar

StartChar: cedilla
Encoding: 184 184 128
GlifName: cedilla
Width: 1099
Flags: HMW
LayerCount: 2
Fore
SplineSet
474 -158 m 1
 714 82 l 1
 726 82 l 1
 486 -158 l 1
 474 -158 l 1
474 -158 m 1
 560 -78 l 1
 722 -78 828 -120 828 -220 c 0
 828 -340 664 -440 462 -440 c 1
 462 -432 l 1
 580 -432 678 -366 678 -260 c 0
 678 -174 604 -158 474 -158 c 1
EndSplineSet
EndChar

StartChar: divide
Encoding: 247 247 131
GlifName: divide
Width: 1119
Flags: HMW
LayerCount: 2
Fore
SplineSet
188 794 m 1
 1109 794 l 1
 1109 786 l 1
 188 786 l 1
 188 794 l 1
439 420 m 0
 439 486 494 540 560 540 c 0
 626 540 680 486 680 420 c 0
 680 354 626 301 560 301 c 0
 494 301 439 354 439 420 c 0
600 1130 m 0
 600 1196 654 1250 720 1250 c 0
 786 1250 840 1196 840 1130 c 0
 840 1064 786 1011 720 1011 c 0
 654 1011 600 1064 600 1130 c 0
EndSplineSet
EndChar

StartChar: ring
Encoding: 730 730 271
GlifName: ring
Width: 639
VWidth: 0
Flags: HMW
LayerCount: 2
Fore
SplineSet
380 1360 m 0
 380 1462 458 1540 560 1540 c 0
 662 1540 740 1462 740 1360 c 0
 740 1258 662 1180 560 1180 c 0
 458 1180 380 1258 380 1360 c 0
450 1320 m 0
 450 1240 476 1188 550 1188 c 0
 624 1188 670 1316 670 1400 c 0
 670 1480 644 1532 570 1532 c 0
 496 1532 450 1404 450 1320 c 0
EndSplineSet
EndChar

StartChar: tilde
Encoding: 732 732 272
GlifName: tilde
Width: 895
VWidth: 0
Flags: HMW
LayerCount: 2
Fore
SplineSet
468 1338 m 0
 384 1338 338 1304 298 1200 c 1
 290 1200 l 1
 330 1370 440 1454 538 1454 c 0
 678 1454 758 1296 868 1296 c 0
 952 1296 998 1330 1038 1434 c 1
 1046 1434 l 1
 1006 1244 916 1180 818 1180 c 0
 664 1180 592 1338 468 1338 c 0
EndSplineSet
EndChar

StartChar: AE
Encoding: 198 198 274
GlifName: A_E_
Width: 2000
Flags: HMW
LayerCount: 2
Fore
SplineSet
1358 1500 m 1
 2188 1500 l 1
 2092 1090 l 1
 2084 1090 l 1
 2134 1304 2072 1492 1838 1492 c 2
 1358 1492 l 1
 1358 1500 l 1
1456 772 m 2
 1314 772 l 1
 1314 780 l 1
 1456 780 l 2
 1570 780 1690 852 1720 986 c 1
 1728 986 l 1
 1630 556 l 1
 1622 556 l 1
 1652 690 1570 772 1456 772 c 2
1860 0 m 1
 800 0 l 1
 800 8 l 1
 1490 8 l 2
 1764 8 1898 196 1956 450 c 1
 1964 450 l 1
 1860 0 l 1
1318 1500 m 1
 1508 1500 l 1
 1160 0 l 1
 970 0 l 1
 1318 1500 l 1
528 494 m 1
 1110 494 l 1
 1110 486 l 1
 528 486 l 1
 528 494 l 1
1310 1500 m 1
 1322 1500 l 1
 150 0 l 1
 136 0 l 1
 1310 1500 l 1
-50 8 m 1
 390 8 l 1
 390 0 l 1
 -50 0 l 1
 -50 8 l 1
EndSplineSet
EndChar

StartChar: Eth
Encoding: 208 208 275
GlifName: E_th
Width: 1389
Flags: HMW
LayerCount: 2
Fore
SplineSet
176 754 m 1
 656 754 l 1
 656 746 l 1
 176 746 l 1
 176 754 l 1
479 1500 m 1
 668 1500 l 1
 328 0 l 1
 139 0 l 1
 479 1500 l 1
528 0 m 2
 -42 0 l 1
 -42 8 l 1
 528 8 l 2
 956 8 1198 646 1198 1070 c 0
 1198 1254 1116 1492 868 1492 c 2
 278 1492 l 1
 278 1500 l 1
 868 1500 l 2
 1194 1500 1418 1316 1418 990 c 0
 1418 444 1014 0 528 0 c 2
EndSplineSet
EndChar

StartChar: ae
Encoding: 230 230 277
GlifName: ae
Width: 1525
VWidth: 2309
Flags: HMW
LayerCount: 2
Fore
SplineSet
548 506 m 2
 696 506 l 1
 696 498 l 1
 548 498 l 2
 376 498 240 360 240 176 c 0
 240 62 290 -12 360 -12 c 0
 474 -12 592 166 636 362 c 2
 692 610 l 2
 720 738 726 926 566 926 c 0
 478 926 322 892 266 802 c 1
 374 856 448 800 448 736 c 0
 448 656 380 622 330 622 c 0
 270 622 226 660 226 732 c 0
 226 856 404 936 586 936 c 0
 846 936 864 772 832 610 c 1
 746 362 l 1
 700 114 562 -20 340 -20 c 0
 182 -20 36 38 36 186 c 0
 36 374 224 506 548 506 c 2
1326 744 m 0
 1326 838 1304 932 1232 932 c 0
 1054 932 838 608 838 280 c 0
 838 132 890 -2 1008 -2 c 0
 1192 -2 1344 138 1420 286 c 1
 1428 286 l 1
 1350 132 1190 -20 968 -20 c 0
 806 -20 670 80 670 320 c 1
 710 310 l 1
 714 690 972 940 1232 940 c 0
 1396 940 1518 888 1518 744 c 0
 1518 460 1042 456 820 456 c 1
 820 464 l 1
 1038 464 1326 476 1326 744 c 0
EndSplineSet
EndChar

StartChar: perthousand
Encoding: 8240 8240 285
GlifName: perthousand
Width: 2939
Flags: HMW
LayerCount: 2
Fore
SplineSet
2400 -20 m 0
 2214 -20 2100 74 2100 280 c 0
 2100 606 2314 860 2580 860 c 0
 2766 860 2880 766 2880 560 c 0
 2880 234 2666 -20 2400 -20 c 0
2580 852 m 0
 2432 852 2300 504 2300 240 c 0
 2300 98 2332 -12 2400 -12 c 0
 2548 -12 2680 304 2680 568 c 0
 2680 710 2648 852 2580 852 c 0
1460 -20 m 0
 1274 -20 1160 74 1160 280 c 0
 1160 606 1374 860 1640 860 c 0
 1826 860 1940 766 1940 560 c 0
 1940 234 1726 -20 1460 -20 c 0
1640 852 m 0
 1492 852 1360 504 1360 240 c 0
 1360 98 1392 -12 1460 -12 c 0
 1608 -12 1740 304 1740 568 c 0
 1740 710 1708 852 1640 852 c 0
1778 1500 m 1
 1790 1500 l 1
 398 0 l 1
 386 0 l 1
 1778 1500 l 1
550 640 m 0
 364 640 250 734 250 940 c 0
 250 1266 464 1520 730 1520 c 0
 916 1520 1030 1426 1030 1220 c 0
 1030 894 816 640 550 640 c 0
730 1512 m 0
 582 1512 450 1164 450 900 c 0
 450 758 482 648 550 648 c 0
 698 648 830 996 830 1260 c 0
 830 1402 798 1512 730 1512 c 0
EndSplineSet
EndChar

StartChar: uni2031
Encoding: 8241 8241 286
GlifName: uni2031
Width: 3899
Flags: HMW
LayerCount: 2
Fore
SplineSet
3362 -20 m 0
 3176 -20 3062 74 3062 280 c 0
 3062 606 3276 860 3542 860 c 0
 3728 860 3842 766 3842 560 c 0
 3842 234 3628 -20 3362 -20 c 0
3542 852 m 0
 3394 852 3262 504 3262 240 c 0
 3262 98 3294 -12 3362 -12 c 0
 3510 -12 3642 304 3642 568 c 0
 3642 710 3610 852 3542 852 c 0
2400 -20 m 0
 2214 -20 2100 74 2100 280 c 0
 2100 606 2314 860 2580 860 c 0
 2766 860 2880 766 2880 560 c 0
 2880 234 2666 -20 2400 -20 c 0
2580 852 m 0
 2432 852 2300 504 2300 240 c 0
 2300 98 2332 -12 2400 -12 c 0
 2548 -12 2680 304 2680 568 c 0
 2680 710 2648 852 2580 852 c 0
1460 -20 m 0
 1274 -20 1160 74 1160 280 c 0
 1160 606 1374 860 1640 860 c 0
 1826 860 1940 766 1940 560 c 0
 1940 234 1726 -20 1460 -20 c 0
1640 852 m 0
 1492 852 1360 504 1360 240 c 0
 1360 98 1392 -12 1460 -12 c 0
 1608 -12 1740 304 1740 568 c 0
 1740 710 1708 852 1640 852 c 0
1778 1500 m 1
 1790 1500 l 1
 398 0 l 1
 386 0 l 1
 1778 1500 l 1
550 640 m 0
 364 640 250 734 250 940 c 0
 250 1266 464 1520 730 1520 c 0
 916 1520 1030 1426 1030 1220 c 0
 1030 894 816 640 550 640 c 0
730 1512 m 0
 582 1512 450 1164 450 900 c 0
 450 758 482 648 550 648 c 0
 698 648 830 996 830 1260 c 0
 830 1402 798 1512 730 1512 c 0
EndSplineSet
EndChar

StartChar: uniFB00
Encoding: 64256 64256 290
GlifName: uniF_B_00
Width: 1231
VWidth: 2309
Flags: HMW
LayerCount: 2
Fore
SplineSet
104 920 m 1
 1304 920 l 1
 1304 912 l 1
 104 912 l 1
 104 920 l 1
1536 1360 m 1
 1526 1424 1466 1512 1326 1512 c 0
 1186 1512 1088 1324 1044 1080 c 2
 864 76 l 2
 818 -176 650 -420 370 -420 c 0
 188 -420 124 -306 124 -222 c 0
 124 -140 178 -98 238 -98 c 0
 288 -98 350 -126 350 -206 c 0
 350 -286 288 -318 230 -318 c 0
 192 -318 150 -294 140 -260 c 1
 150 -324 210 -412 370 -412 c 0
 530 -412 630 -224 672 20 c 2
 850 1024 l 2
 894 1276 1066 1520 1326 1520 c 0
 1488 1520 1552 1406 1552 1322 c 0
 1552 1240 1498 1198 1438 1198 c 0
 1388 1198 1326 1226 1326 1306 c 0
 1326 1386 1388 1418 1446 1418 c 0
 1484 1418 1526 1392 1536 1360 c 1
994 1260 m 1
 984 1324 924 1412 764 1412 c 0
 604 1412 506 1224 462 980 c 2
 282 -24 l 2
 236 -276 68 -520 -192 -520 c 0
 -354 -520 -418 -406 -418 -322 c 0
 -418 -240 -364 -198 -304 -198 c 0
 -254 -198 -192 -226 -192 -306 c 0
 -192 -386 -254 -418 -312 -418 c 0
 -350 -418 -392 -394 -402 -360 c 1
 -392 -424 -332 -512 -192 -512 c 0
 -52 -512 48 -324 90 -80 c 2
 268 924 l 2
 312 1176 484 1420 764 1420 c 0
 946 1420 1010 1306 1010 1222 c 0
 1010 1140 956 1098 896 1098 c 0
 846 1098 784 1126 784 1206 c 0
 784 1286 846 1318 904 1318 c 0
 942 1318 984 1292 994 1260 c 1
EndSplineSet
Ligature2: "'liga' Standard Ligatures lookup 0-1" f f
LCarets2: 1 0
EndChar

StartChar: uniFB01
Encoding: 64257 64257 291
GlifName: uniF_B_01
Width: 1185
VWidth: 2309
Flags: HMW
LayerCount: 2
Fore
SplineSet
1146 326 m 1
 1070 126 952 -20 790 -20 c 0
 696 -20 648 26 648 126 c 0
 648 136 650 158 652 170 c 2
 818 912 l 1
 104 912 l 1
 104 920 l 1
 1002 920 l 1
 806 76 l 2
 804 64 802 50 802 40 c 0
 802 18 812 2 838 2 c 0
 958 2 1072 146 1140 330 c 1
 1146 326 l 1
1056 1360 m 1
 1046 1424 986 1512 806 1512 c 0
 626 1512 528 1324 484 1080 c 2
 282 -24 l 2
 236 -274 68 -520 -192 -520 c 0
 -354 -520 -418 -406 -418 -322 c 0
 -418 -240 -364 -198 -304 -198 c 0
 -254 -198 -192 -226 -192 -306 c 0
 -192 -386 -254 -418 -312 -418 c 0
 -350 -418 -392 -394 -402 -360 c 1
 -392 -424 -332 -512 -192 -512 c 0
 -52 -512 48 -324 90 -80 c 2
 290 1024 l 2
 334 1276 506 1520 806 1520 c 0
 1008 1520 1072 1406 1072 1322 c 0
 1072 1240 1018 1198 958 1198 c 0
 908 1198 846 1226 846 1306 c 0
 846 1386 908 1418 966 1418 c 0
 1004 1418 1046 1392 1056 1360 c 1
EndSplineSet
Ligature2: "'liga' Standard Ligatures lookup 0-1" f i
LCarets2: 1 0
EndChar

StartChar: uniFB02
Encoding: 64258 64258 292
GlifName: uniF_B_02
Width: 1237
VWidth: 2309
Flags: HMW
LayerCount: 2
Fore
SplineSet
1198 326 m 1
 1122 126 1004 -20 842 -20 c 0
 748 -20 700 26 700 126 c 0
 700 136 702 158 704 170 c 2
 1000 1460 l 1
 1198 1540 l 1
 858 76 l 2
 856 64 854 50 854 40 c 0
 854 18 864 2 890 2 c 0
 1014 2 1128 158 1192 330 c 1
 1198 326 l 1
104 920 m 1
 744 920 l 1
 744 912 l 1
 104 912 l 1
 104 920 l 1
1052 1322 m 0
 1052 1240 998 1198 938 1198 c 0
 888 1198 826 1226 826 1306 c 0
 826 1386 888 1418 946 1418 c 0
 984 1418 1026 1392 1036 1360 c 1
 1026 1424 982 1512 826 1512 c 0
 666 1512 528 1324 484 1080 c 2
 282 -24 l 2
 236 -274 68 -520 -192 -520 c 0
 -354 -520 -418 -406 -418 -322 c 0
 -418 -240 -364 -198 -304 -198 c 0
 -254 -198 -192 -226 -192 -306 c 0
 -192 -386 -254 -418 -312 -418 c 0
 -350 -418 -392 -394 -402 -360 c 1
 -392 -424 -332 -512 -192 -512 c 0
 -52 -512 48 -324 90 -80 c 2
 290 1024 l 2
 334 1276 546 1520 826 1520 c 0
 1006 1520 1052 1412 1052 1322 c 0
EndSplineSet
Ligature2: "'liga' Standard Ligatures lookup 0-1" f l
LCarets2: 1 0
EndChar

StartChar: uniFB03
Encoding: 64259 64259 293
GlifName: uniF_B_03
Width: 1745
VWidth: 2309
Flags: HMW
LayerCount: 2
Fore
SplineSet
1706 326 m 1
 1630 126 1512 -20 1350 -20 c 0
 1256 -20 1208 26 1208 126 c 0
 1208 136 1210 158 1212 170 c 2
 1378 912 l 1
 104 912 l 1
 104 920 l 1
 1562 920 l 1
 1366 76 l 2
 1364 64 1362 50 1362 40 c 0
 1362 18 1372 2 1398 2 c 0
 1518 2 1632 146 1700 330 c 1
 1706 326 l 1
1632 1322 m 0
 1632 1240 1578 1198 1518 1198 c 0
 1468 1198 1406 1226 1406 1306 c 0
 1406 1386 1468 1418 1526 1418 c 0
 1564 1418 1606 1392 1616 1360 c 1
 1606 1424 1546 1512 1366 1512 c 0
 1186 1512 1088 1324 1044 1080 c 2
 864 76 l 2
 820 -174 650 -420 370 -420 c 0
 188 -420 124 -306 124 -222 c 0
 124 -140 178 -98 238 -98 c 0
 288 -98 350 -126 350 -206 c 0
 350 -286 288 -318 230 -318 c 0
 192 -318 150 -294 140 -260 c 1
 150 -324 210 -412 370 -412 c 0
 530 -412 630 -224 672 20 c 2
 850 1024 l 2
 894 1276 1066 1520 1366 1520 c 0
 1562 1520 1632 1416 1632 1322 c 0
994 1260 m 1
 984 1324 924 1412 764 1412 c 0
 604 1412 506 1224 462 980 c 2
 282 -24 l 2
 236 -276 68 -520 -192 -520 c 0
 -354 -520 -418 -406 -418 -322 c 0
 -418 -240 -364 -198 -304 -198 c 0
 -254 -198 -192 -226 -192 -306 c 0
 -192 -386 -254 -418 -312 -418 c 0
 -350 -418 -392 -394 -402 -360 c 1
 -392 -424 -332 -512 -192 -512 c 0
 -52 -512 48 -324 90 -80 c 2
 268 924 l 2
 312 1176 484 1420 764 1420 c 0
 946 1420 1010 1306 1010 1222 c 0
 1010 1140 956 1098 896 1098 c 0
 846 1098 784 1126 784 1206 c 0
 784 1286 846 1318 904 1318 c 0
 942 1318 984 1292 994 1260 c 1
EndSplineSet
Ligature2: "'liga' Standard Ligatures lookup 0-1" f f i
LCarets2: 2 0 0
EndChar

StartChar: uniFB04
Encoding: 64260 64260 294
GlifName: uniF_B_04
Width: 1797
VWidth: 2309
Flags: HMW
LayerCount: 2
Fore
SplineSet
1758 326 m 1
 1682 126 1564 -20 1402 -20 c 0
 1308 -20 1260 26 1260 126 c 0
 1260 136 1262 158 1264 170 c 2
 1560 1460 l 1
 1758 1540 l 1
 1418 76 l 2
 1416 64 1414 50 1414 40 c 0
 1414 18 1424 2 1450 2 c 0
 1574 2 1688 158 1752 330 c 1
 1758 326 l 1
104 920 m 1
 1304 920 l 1
 1304 912 l 1
 104 912 l 1
 104 920 l 1
1596 1360 m 1
 1586 1424 1542 1512 1386 1512 c 0
 1226 1512 1088 1324 1044 1080 c 2
 864 76 l 2
 818 -176 658 -420 378 -420 c 0
 196 -420 132 -306 132 -222 c 0
 132 -140 186 -98 246 -98 c 0
 296 -98 358 -126 358 -206 c 0
 358 -286 296 -318 238 -318 c 0
 200 -318 158 -294 148 -260 c 1
 158 -324 218 -412 378 -412 c 0
 538 -412 638 -224 680 20 c 2
 850 1024 l 2
 894 1276 1106 1520 1386 1520 c 0
 1568 1520 1612 1406 1612 1322 c 0
 1612 1240 1558 1198 1498 1198 c 0
 1448 1198 1386 1226 1386 1306 c 0
 1386 1386 1448 1418 1506 1418 c 0
 1544 1418 1586 1392 1596 1360 c 1
994 1260 m 1
 984 1324 924 1412 764 1412 c 0
 604 1412 506 1224 462 980 c 2
 282 -24 l 2
 236 -276 68 -520 -192 -520 c 0
 -354 -520 -418 -406 -418 -322 c 0
 -418 -240 -364 -198 -304 -198 c 0
 -254 -198 -192 -226 -192 -306 c 0
 -192 -386 -254 -418 -312 -418 c 0
 -350 -418 -392 -394 -402 -360 c 1
 -392 -424 -332 -512 -192 -512 c 0
 -52 -512 48 -324 90 -80 c 2
 268 924 l 2
 312 1176 484 1420 764 1420 c 0
 946 1420 1010 1306 1010 1222 c 0
 1010 1140 956 1098 896 1098 c 0
 846 1098 784 1126 784 1206 c 0
 784 1286 846 1318 904 1318 c 0
 942 1318 984 1292 994 1260 c 1
EndSplineSet
Ligature2: "'liga' Standard Ligatures lookup 0-1" f f l
LCarets2: 2 0 0
EndChar

StartChar: ogonek
Encoding: 731 731 295
GlifName: ogonek
Width: 1099
Flags: HMW
LayerCount: 2
Fore
SplineSet
636 -226 m 1
 606 -282 548 -372 406 -372 c 0
 304 -372 200 -340 200 -220 c 0
 200 -60 426 46 548 86 c 1
 552 80 l 1
 490 46 386 -44 386 -208 c 0
 386 -300 424 -346 472 -346 c 0
 550 -346 602 -272 628 -222 c 1
 636 -226 l 1
EndSplineSet
EndChar

StartChar: dotlessi
Encoding: 305 305 296
GlifName: dotlessi
Width: 637
VWidth: 2309
Flags: HMW
LayerCount: 2
Fore
SplineSet
598 326 m 1
 522 126 404 -20 242 -20 c 0
 148 -20 100 26 100 126 c 0
 100 136 102 158 104 170 c 2
 270 912 l 1
 130 912 l 1
 130 920 l 1
 454 920 l 1
 258 76 l 2
 256 64 254 50 254 40 c 0
 254 18 264 2 290 2 c 0
 410 2 524 146 592 330 c 1
 598 326 l 1
EndSplineSet
EndChar

StartChar: uni0237
Encoding: 567 567 297
GlifName: uni0237
Width: 523
VWidth: 2309
Flags: HMW
LayerCount: 2
Fore
SplineSet
-338 -330 m 1
 -330 -418 -254 -512 -154 -512 c 0
 26 -512 34 -200 90 40 c 2
 292 912 l 1
 106 912 l 1
 106 920 l 1
 466 920 l 1
 270 -24 l 2
 218 -274 116 -520 -144 -520 c 0
 -286 -520 -350 -386 -350 -312 c 0
 -350 -230 -286 -178 -226 -178 c 0
 -176 -178 -124 -212 -124 -286 c 0
 -124 -360 -186 -398 -246 -398 c 0
 -294 -398 -326 -364 -338 -330 c 1
EndSplineSet
EndChar

StartChar: kgreenlandic
Encoding: 312 312 306
GlifName: kgreenlandic
Width: 1103
VWidth: 2309
Flags: HMW
LayerCount: 2
Fore
SplineSet
1066 326 m 1
 990 126 872 -20 710 -20 c 0
 616 -20 574 26 574 126 c 0
 574 136 576 158 578 170 c 2
 602 280 l 2
 628 396 698 570 550 570 c 0
 408 570 378 448 360 380 c 1
 352 380 l 1
 392 558 482 578 564 578 c 0
 702 578 826 502 766 242 c 2
 720 52 l 2
 720 48 718 38 718 34 c 0
 718 12 732 2 758 2 c 0
 872 2 990 146 1058 330 c 1
 1066 326 l 1
406 500 m 1
 411 507 l 1
 417 505 442 492 476 492 c 0
 574 492 610 594 662 722 c 0
 718 858 786 940 886 940 c 0
 976 940 1036 882 1036 778 c 0
 1036 688 984 658 934 658 c 0
 884 658 834 692 834 758 c 0
 834 814 874 852 930 852 c 0
 988 852 1014 816 1022 786 c 1
 1020 872 972 932 886 932 c 0
 790 932 726 850 672 716 c 0
 618 580 576 484 476 484 c 0
 438 484 416 494 406 500 c 1
304 913 m 5
 125 913 l 5
 125 920 l 5
 486 920 l 1
 272 0 l 1
 92 0 l 1
 304 913 l 5
EndSplineSet
EndChar

StartChar: breve
Encoding: 728 728 307
GlifName: breve
Width: 559
VWidth: 2309
Flags: HMW
LayerCount: 2
Fore
SplineSet
328 1518 m 1
 308 1420 392 1370 500 1370 c 0
 608 1370 732 1420 752 1518 c 1
 760 1518 l 1
 740 1396 660 1260 480 1260 c 0
 320 1260 300 1396 320 1518 c 1
 328 1518 l 1
EndSplineSet
EndChar

StartChar: thorn
Encoding: 254 254 318
GlifName: thorn
Width: 1145
VWidth: 2309
Flags: HMW
LayerCount: 2
Fore
SplineSet
358 296 m 0
 358 150 404 18 504 18 c 0
 692 18 878 376 878 644 c 0
 878 810 824 920 722 920 c 0
 500 920 358 522 358 296 c 0
350 296 m 0
 350 512 480 944 762 944 c 0
 900 944 1086 864 1086 604 c 0
 1086 204 766 -16 568 -16 c 0
 416 -16 350 112 350 296 c 0
-150 -492 m 1
 300 -492 l 1
 300 -500 l 1
 -150 -500 l 1
 -150 -492 l 1
434 1492 m 1
 294 1492 l 1
 294 1500 l 1
 618 1500 l 1
 410 588 l 1
 370 446 l 1
 352 326 l 1
 160 -500 l 1
 -20 -500 l 1
 434 1492 l 1
EndSplineSet
EndChar

StartChar: Thorn
Encoding: 222 222 319
GlifName: T_horn
Width: 1209
Flags: HMW
LayerCount: 2
Fore
SplineSet
600 360 m 2
 380 360 l 1
 380 368 l 1
 600 368 l 2
 872 368 1030 662 1030 880 c 0
 1030 998 992 1192 800 1192 c 2
 510 1192 l 1
 510 1200 l 1
 800 1200 l 2
 1062 1200 1250 1100 1250 860 c 0
 1250 560 1002 360 600 360 c 2
-50 8 m 1
 500 8 l 1
 500 0 l 1
 -50 0 l 1
 -50 8 l 1
296 1500 m 1
 846 1500 l 1
 846 1492 l 1
 296 1492 l 1
 296 1500 l 1
476 1500 m 1
 666 1500 l 1
 320 0 l 1
 130 0 l 1
 476 1500 l 1
EndSplineSet
EndChar

StartChar: Lslash
Encoding: 321 321 324
GlifName: L_slash
Width: 1123
Flags: HMW
LayerCount: 2
Fore
SplineSet
70 720 m 1
 760 1160 l 1
 760 1150 l 1
 70 710 l 1
 70 720 l 1
EndSplineSet
Refer: 23 76 N 1 0 0 1 0 0 2
EndChar

StartChar: lslash
Encoding: 322 322 325
GlifName: lslash
Width: 617
VWidth: 2309
Flags: HMW
LayerCount: 2
Fore
SplineSet
72 800 m 1
 642 1160 l 1
 642 1148 l 1
 72 788 l 1
 72 800 l 1
EndSplineSet
Refer: 49 108 N 1 0 0 1 0 0 2
EndChar

StartChar: eth
Encoding: 240 240 329
GlifName: eth
Width: 1119
VWidth: 2309
Flags: HMW
LayerCount: 2
Fore
SplineSet
420 1260 m 1
 1260 1260 l 1
 1260 1252 l 1
 420 1252 l 1
 420 1260 l 1
1114 800 m 0
 1114 380 814 -20 472 -20 c 0
 230 -20 80 80 80 340 c 0
 80 760 416 980 658 980 c 0
 868 980 900 822 900 588 c 1
 888 660 l 1
 888 800 846 962 702 962 c 0
 484 962 280 648 280 300 c 0
 280 152 312 -12 470 -12 c 0
 688 -12 888 432 888 660 c 1
 892 668 l 1
 892 1064 914 1512 470 1512 c 1
 470 1520 l 1
 916 1520 1114 1186 1114 800 c 0
EndSplineSet
EndChar

StartChar: OE
Encoding: 338 338 330
GlifName: O_E_
Width: 1899
Flags: HMW
LayerCount: 2
Fore
SplineSet
978 1500 m 1
 978 1492 l 1
 610 1492 368 854 368 390 c 0
 368 186 432 8 640 8 c 1
 640 0 l 1
 334 0 148 184 148 510 c 0
 148 1056 552 1500 978 1500 c 1
EndSplineSet
Refer: 16 69 N 1 0 0 1 730 0 2
EndChar

StartChar: germandbls
Encoding: 223 223 332
GlifName: germandbls
Width: 1361
VWidth: 2309
Flags: HMW
LayerCount: 2
Fore
SplineSet
1302 380 m 0
 1302 100 1074 -20 892 -20 c 0
 714 -20 616 88 616 232 c 0
 616 344 680 402 750 402 c 0
 810 402 858 362 858 290 c 0
 858 226 798 180 740 180 c 0
 682 180 634 216 626 266 c 1
 608 114 702 -8 872 -8 c 0
 1050 -8 1100 192 1100 380 c 0
 1100 568 1024 806 786 806 c 1
 786 814 l 1
 1148 814 1302 640 1302 380 c 0
-50 8 m 1
 490 8 l 1
 490 0 l 1
 -50 0 l 1
 -50 8 l 1
786 808 m 1
 786 816 l 1
 1044 816 1220 1034 1220 1202 c 0
 1220 1346 1174 1512 966 1512 c 0
 678 1512 592 1232 530 962 c 2
 310 0 l 1
 130 0 l 1
 350 982 l 2
 424 1312 620 1520 966 1520 c 0
 1232 1520 1422 1408 1422 1202 c 0
 1422 982 1188 808 786 808 c 1
EndSplineSet
EndChar

StartChar: uni0212
Encoding: 530 530 333
GlifName: uni0212
Width: 1429
VWidth: 0
Flags: HMW
LayerCount: 2
Fore
SplineSet
1192 1640 m 1
 1212 1738 1128 1788 1020 1788 c 0
 912 1788 788 1738 768 1640 c 1
 760 1640 l 1
 780 1762 860 1898 1040 1898 c 0
 1220 1898 1220 1762 1200 1640 c 1
 1192 1640 l 1
EndSplineSet
Refer: 29 82 N 1 0 0 1 0 0 3
EndChar

StartChar: uni0213
Encoding: 531 531 334
GlifName: uni0213
Width: 789
VWidth: 0
Flags: HMW
LayerCount: 2
Fore
SplineSet
768 1060 m 1
 788 1158 706 1208 598 1208 c 0
 490 1208 366 1158 346 1060 c 1
 338 1060 l 1
 358 1182 438 1318 618 1318 c 0
 798 1318 798 1182 778 1060 c 1
 768 1060 l 1
EndSplineSet
Refer: 55 114 N 1 0 0 1 0 0 3
EndChar

StartChar: circumflex
Encoding: 710 710 335
GlifName: circumflex
Width: 769
Flags: HMW
LayerCount: 2
Fore
SplineSet
644 1450 m 1
 324 1316 l 1
 320 1320 l 1
 584 1540 l 1
 714 1540 l 1
 890 1320 l 1
 886 1316 l 1
 644 1450 l 1
EndSplineSet
EndChar

StartChar: caron
Encoding: 711 711 336
GlifName: caron
Width: 769
Flags: HMW
LayerCount: 2
Fore
SplineSet
624 1430 m 1
 946 1564 l 1
 950 1560 l 1
 690 1340 l 1
 560 1340 l 1
 380 1560 l 1
 384 1564 l 1
 624 1430 l 1
EndSplineSet
EndChar

StartChar: pi
Encoding: 960 960 337
GlifName: pi
Width: 1161
VWidth: 2309
Flags: HMW
LayerCount: 2
Fore
SplineSet
148 -20 m 0
 66 -20 30 26 30 76 c 0
 30 212 260 192 360 558 c 2
 454 900 l 1
 566 900 l 1
 456 486 l 2
 378 190 284 -20 148 -20 c 0
1052 206 m 1
 1006 66 922 -20 796 -20 c 0
 722 -20 630 36 662 166 c 2
 832 840 l 1
 1012 840 l 1
 840 186 l 2
 820 112 852 94 900 94 c 0
 972 94 1008 142 1046 210 c 1
 1052 206 l 1
1192 920 m 1
 1132 740 l 1
 180 740 l 1
 144 590 l 1
 136 590 l 1
 214 920 l 1
 1192 920 l 1
EndSplineSet
EndChar

StartChar: uni1E9E
Encoding: 7838 7838 338
GlifName: uni1E_9E_
Width: 1601
VWidth: 2309
Flags: HMW
LayerCount: 2
Fore
SplineSet
590 272 m 0
 590 354 640 402 710 402 c 0
 770 402 818 362 818 290 c 0
 818 226 762 180 704 180 c 0
 646 180 612 224 604 244 c 1
 610 128 696 -2 922 -2 c 0
 1200 -2 1330 232 1330 460 c 0
 1330 608 1284 806 1026 806 c 1
 1026 814 l 1
 1428 814 1542 680 1542 460 c 0
 1542 160 1284 -20 962 -20 c 0
 678 -20 590 128 590 272 c 0
-50 8 m 1
 510 8 l 1
 510 0 l 1
 -50 0 l 1
 -50 8 l 1
1026 808 m 1
 1026 816 l 1
 1384 816 1450 1114 1450 1242 c 0
 1450 1346 1414 1512 1126 1512 c 0
 778 1512 606 1188 530 862 c 2
 330 0 l 1
 130 0 l 1
 330 882 l 2
 418 1268 720 1520 1126 1520 c 0
 1512 1520 1662 1388 1662 1222 c 0
 1662 1062 1528 808 1026 808 c 1
EndSplineSet
EndChar

StartChar: uni203D
Encoding: 8253 8253 339
GlifName: uni203D_
Width: 1119
Flags: HMW
LayerCount: 2
Fore
SplineSet
836 1058 m 0
 796 846 622 716 542 416 c 1
 534 416 l 1
 594 716 600 846 600 998 c 0
 600 1110 630 1196 728 1196 c 0
 798 1196 852 1140 836 1058 c 0
1008 1220 m 0
 1008 1368 930 1510 752 1510 c 0
 508 1510 344 1336 336 1220 c 1
 348 1240 376 1280 434 1280 c 0
 492 1280 548 1240 548 1170 c 0
 548 1090 484 1058 434 1058 c 0
 374 1058 320 1100 320 1182 c 0
 320 1346 508 1520 772 1520 c 0
 994 1520 1210 1420 1210 1180 c 0
 1210 900 900 670 630 670 c 1
 630 678 l 1
 812 740 1008 974 1008 1220 c 0
EndSplineSet
Refer: 1 46 N 1 0 0 1 318 0 2
EndChar

StartChar: R.alt
Encoding: 65536 -1 340
GlifName: R_.alt
Width: 1379
Flags: HMW
LayerCount: 2
Fore
SplineSet
1230 0 m 1
 1198 0 1182 0 1110 0 c 0
 664 0 1132 766 660 766 c 2
 430 766 l 1
 430 770 l 1
 700 770 l 2
 1346 770 954 8 1180 8 c 0
 1202 8 1230 8 1230 8 c 1
 1230 0 l 1
470 1500 m 1
 660 1500 l 1
 310 0 l 1
 120 0 l 1
 470 1500 l 1
-80 8 m 1
 530 8 l 1
 530 0 l 1
 -80 0 l 1
 -80 8 l 1
720 766 m 2
 430 766 l 1
 430 774 l 1
 720 774 l 2
 992 774 1130 1022 1130 1220 c 0
 1130 1318 1112 1492 920 1492 c 2
 250 1492 l 1
 250 1500 l 1
 920 1500 l 2
 1182 1500 1350 1420 1350 1200 c 0
 1350 920 1122 766 720 766 c 2
EndSplineSet
EndChar

StartChar: J.alt
Encoding: 65537 -1 341
GlifName: J_.alt
Width: 1071
Flags: HMW
LayerCount: 2
Fore
SplineSet
672 1500 m 1
 1302 1500 l 1
 1302 1492 l 1
 672 1492 l 1
 672 1500 l 1
912 1500 m 1
 1102 1500 l 1
 882 560 l 2
 810 256 624 -20 302 -20 c 0
 88 -20 10 130 10 270 c 0
 10 414 84 480 164 480 c 0
 234 480 296 444 296 352 c 0
 296 282 242 226 154 226 c 0
 92 226 38 260 20 308 c 1
 4 146 88 -12 302 -12 c 0
 544 -12 634 232 692 500 c 2
 912 1500 l 1
EndSplineSet
EndChar

StartChar: four.alt
Encoding: 65538 -1 342
GlifName: four.alt
Width: 1189
VWidth: 2309
Flags: HMW
LayerCount: 2
Fore
SplineSet
1040 996 m 1
 818 -2 l 1
 628 -2 l 1
 840 956 l 1
 900 956 1000 976 1040 996 c 1
984 8 m 1
 984 0 l 1
 454 0 l 1
 454 8 l 1
 984 8 l 1
46 394 m 1
 1090 394 l 1
 1090 386 l 1
 30 386 l 1
 310 786 900 1200 940 1500 c 1
 1136 1500 l 1
 1098 1210 346 782 46 394 c 1
EndSplineSet
EndChar

StartChar: fj.lig
Encoding: 65539 -1 343
GlifName: fj.lig
Width: 1063
VWidth: 2309
Flags: HMW
LayerCount: 2
Fore
SplineSet
666 20 m 2
 830 910 l 1
 104 912 l 1
 104 920 l 1
 1006 920 l 1
 850 76 l 2
 804 -176 644 -420 364 -420 c 0
 182 -420 118 -306 118 -222 c 0
 118 -140 172 -98 232 -98 c 0
 282 -98 344 -126 344 -206 c 0
 344 -286 282 -318 224 -318 c 0
 168 -318 142 -278 136 -260 c 1
 142 -320 208 -412 364 -412 c 0
 524 -412 620 -222 666 20 c 2
1058 1360 m 1
 1042 1424 986 1512 806 1512 c 0
 626 1512 528 1324 484 1080 c 2
 282 -24 l 2
 236 -274 76 -520 -184 -520 c 0
 -346 -520 -410 -406 -410 -322 c 0
 -410 -240 -356 -198 -296 -198 c 0
 -246 -198 -184 -226 -184 -306 c 0
 -184 -386 -246 -418 -304 -418 c 0
 -360 -418 -390 -378 -396 -360 c 1
 -382 -420 -330 -512 -184 -512 c 0
 -44 -512 56 -324 98 -80 c 2
 290 1024 l 2
 334 1276 506 1520 806 1520 c 0
 1008 1520 1072 1406 1072 1322 c 0
 1072 1240 1018 1198 958 1198 c 0
 908 1198 846 1226 846 1306 c 0
 846 1386 908 1418 966 1418 c 0
 1022 1418 1052 1380 1058 1360 c 1
EndSplineSet
LCarets2: 1 0
Ligature2: "'liga' Standard Ligatures lookup 0-1" f j
EndChar

StartChar: v.alt
Encoding: 65540 -1 344
Width: 911
VWidth: 2309
Flags: HW
LayerCount: 2
Fore
SplineSet
330 950 m 1
 334 944 l 1
 252 898 230 826 230 764 c 0
 230 600 428 518 428 270 c 0
 428 236 418 118 414 72 c 1
 732 244 894 426 894 688 c 0
 894 742 884 812 868 836 c 1
 864 788 820 710 736 710 c 0
 656 710 624 774 624 824 c 0
 624 884 672 938 746 938 c 0
 872 938 902 810 902 688 c 0
 902 350 632 166 242 -24 c 1
 236 -16 l 1
 240 28 246 172 246 212 c 0
 246 366 60 498 60 646 c 0
 60 806 230 902 330 950 c 1
EndSplineSet
EndChar

StartChar: uni2116
Encoding: 8470 8470 345
Width: 2171
Flags: HW
LayerCount: 2
Fore
SplineSet
1608 634 m 1
 2088 634 l 1
 2086 626 l 1
 1606 626 l 1
 1608 634 l 1
2048 1520 m 0
 2214 1520 2314 1426 2314 1260 c 0
 2314 958 2100 760 1874 760 c 0
 1708 760 1608 854 1608 1020 c 0
 1608 1322 1822 1520 2048 1520 c 0
1766 952 m 0
 1766 814 1804 768 1882 768 c 0
 2028 768 2156 1076 2156 1328 c 0
 2156 1466 2118 1512 2040 1512 c 0
 1894 1512 1766 1204 1766 952 c 0
EndSplineSet
Refer: 25 78 N 1 0 0 1 52 0 2
EndChar

StartChar: Euro
Encoding: 8364 8364 346
Width: 1419
Flags: HW
LayerCount: 2
Fore
SplineSet
1498 1270 m 1
 1480 1378 1364 1512 1178 1512 c 0
 800 1512 538 978 538 490 c 0
 538 262 592 -8 810 -8 c 0
 1020 -8 1228 168 1298 356 c 1
 1306 356 l 1
 1234 162 1028 -20 786 -20 c 0
 544 -20 310 150 310 550 c 0
 310 1070 716 1520 1158 1520 c 0
 1402 1520 1510 1336 1510 1232 c 0
 1510 1150 1456 1108 1396 1108 c 0
 1346 1108 1282 1140 1282 1220 c 0
 1282 1290 1346 1330 1404 1330 c 0
 1456 1330 1490 1290 1498 1270 c 1
EndSplineSet
Refer: 88 61 N 1 0 0 1 -60 -140 2
EndChar

